<svg width="19" height="17" viewBox="0 0 19 17" fill="none" xmlns="http://www.w3.org/2000/svg">
<path d="M9.41701 0.849991H9.52701C10.947 0.879991 12.237 0.939993 13.487 1.03999C15.087 1.16999 16.477 1.88999 17.307 3.01999C17.917 3.84999 18.147 4.81 17.937 5.75C17.927 5.81 17.917 5.86999 17.907 5.92999V5.98C17.757 6.3 17.537 6.61 17.297 6.94C17.177 7.1 17.067 7.26 16.957 7.42C16.147 7.4 14.777 6.74 14.367 6.34C14.417 6.26 14.477 6.17 14.537 6.08C14.997 5.36 15.307 4.85 15.367 4.42C15.417 4.07 15.317 3.71999 15.087 3.42999C14.787 3.04999 14.247 2.77999 13.687 2.73999C13.287 2.70999 12.817 2.69 12.257 2.69C11.757 2.69 11.247 2.69999 10.747 2.70999C10.337 2.70999 9.92701 2.73 9.55701 2.73H9.34701C8.96701 2.73 8.55701 2.71999 8.14701 2.70999C7.64701 2.69999 7.12701 2.69 6.63701 2.69C6.07701 2.69 5.60701 2.70999 5.20701 2.73999C4.64701 2.78999 4.10701 3.04999 3.80701 3.42999C3.57701 3.71999 3.47701 4.07 3.52701 4.42C3.58701 4.86 3.89701 5.37 4.35701 6.09C4.41701 6.18 4.47701 6.26999 4.52701 6.34999C4.11701 6.74999 2.74701 7.40999 1.93701 7.42999C1.82701 7.26999 1.70701 7.1 1.59701 6.94C1.34701 6.6 1.11701 6.27999 0.99701 5.98999C0.99701 5.96999 0.99701 5.94 0.98701 5.92C0.98701 5.87 0.97701 5.81999 0.95701 5.73999C0.74701 4.81999 0.977011 3.86 1.58701 3.03C2.41701 1.9 3.80701 1.18 5.40701 1.05C6.68701 0.950003 8.01701 0.880001 9.36701 0.860001H9.44701M11.447 5.87999C11.327 6.48999 11.447 7.14 11.797 7.72C12.427 8.75 13.867 9.55 15.197 9.97L15.517 15.25C15.527 15.43 15.447 15.52 15.427 15.52H3.43701C3.43701 15.52 3.33701 15.42 3.34701 15.25L3.65701 9.97C4.98701 9.55 6.42701 8.74999 7.05701 7.70999C7.41701 7.12999 7.53701 6.48 7.40701 5.87H11.447M9.43701 15.44C10.307 15.44 11.137 15.17 11.837 14.66L12.067 14.49L12.147 14.57L12.357 14.28L12.637 14.07L12.557 13.99L12.727 13.76C13.907 12.13 13.737 9.90999 12.317 8.48999C11.547 7.71999 10.527 7.3 9.43701 7.3C8.34701 7.3 7.32701 7.71999 6.55701 8.48999C4.96701 10.08 4.96701 12.66 6.55701 14.25C7.32701 15.02 8.34701 15.44 9.43701 15.44ZM9.44701 10.09C9.78701 10.09 10.107 10.22 10.357 10.46C10.767 10.87 10.847 11.52 10.537 12.02L10.377 12.29L10.127 12.45C9.92701 12.57 9.68701 12.64 9.45701 12.64C9.11701 12.64 8.79701 12.51 8.55701 12.27C8.05701 11.77 8.05701 10.96 8.55701 10.46C8.79701 10.22 9.11701 10.09 9.46701 10.09M9.53701 0C9.53701 0 9.46701 0 9.42701 0C9.38701 0 9.35701 0 9.31701 0C7.97701 0.03 6.63701 0.0899969 5.30701 0.199997C1.81701 0.479997 -0.512989 3.23 0.0970108 5.92C0.117011 6.04 0.117011 6.15999 0.167011 6.26999C0.437011 6.92999 0.94701 7.46999 1.31701 8.06999C1.40701 8.20999 1.60701 8.26999 1.87701 8.26999C3.11701 8.26999 5.81701 6.99999 5.37701 6.14999C5.17701 5.76999 4.39701 4.71999 4.34701 4.28999C4.29701 3.90999 4.79701 3.62 5.25701 3.58C5.67701 3.55 6.13701 3.53 6.61701 3.53C7.51701 3.53 8.47701 3.57 9.32701 3.58H9.54701C10.397 3.58 11.347 3.53 12.257 3.53C12.737 3.53 13.197 3.54 13.617 3.58C14.077 3.62 14.577 3.90999 14.527 4.28999C14.467 4.70999 13.687 5.76999 13.497 6.14999C13.057 6.98999 15.757 8.26999 16.997 8.26999C17.267 8.26999 17.467 8.20999 17.557 8.06999C17.937 7.46999 18.447 6.91999 18.717 6.26999C18.767 6.15999 18.767 6.04 18.787 5.92C19.387 3.23 17.067 0.479997 13.577 0.199997C12.237 0.0899969 10.907 0.0299945 9.56701 0.00999451L9.53701 0ZM12.597 5.01999H6.06701C6.06701 5.01999 6.06701 5.01999 6.06701 5.03999C6.21701 5.26999 6.34701 5.47 6.40701 5.61C6.67701 6.13 6.63701 6.74 6.31701 7.28C5.72701 8.25 4.10701 9.01999 2.83701 9.31999L2.48701 15.21C2.44701 15.85 2.87701 16.38 3.42701 16.38H15.417C15.977 16.38 16.397 15.85 16.357 15.21L16.007 9.31999C14.737 9.01999 13.117 8.25 12.527 7.28C12.197 6.74 12.167 6.14 12.427 5.62C12.447 5.58999 12.467 5.54999 12.487 5.51999C12.477 5.40999 12.497 5.26 12.587 5.06C12.587 5.05 12.587 5.03999 12.587 5.03999L12.597 5.01999ZM9.43701 14.59C8.61701 14.59 7.78701 14.28 7.15701 13.65C5.89701 12.39 5.89701 10.35 7.15701 9.09C7.78701 8.46 8.60701 8.14999 9.43701 8.14999C10.267 8.14999 11.087 8.46 11.717 9.09C12.857 10.22 12.957 12 12.047 13.26L11.257 12.47C11.757 11.65 11.657 10.57 10.947 9.86C10.527 9.45 9.98701 9.23999 9.43701 9.23999C8.88701 9.23999 8.34701 9.45 7.92701 9.86C7.09701 10.69 7.09701 12.04 7.92701 12.87C8.33701 13.28 8.88701 13.49 9.42701 13.49C9.81701 13.49 10.207 13.39 10.547 13.18L11.337 13.97C10.777 14.38 10.107 14.59 9.43701 14.59Z" fill="#D3AA74"/>
</svg>
