<svg width="19" height="19" viewBox="0 0 19 19" fill="none" xmlns="http://www.w3.org/2000/svg">
<path d="M13.88 9.82H8.82999V8.50999C8.82999 7.10999 8.17 5.79999 7.06 4.96999C7.15 4.87999 7.18999 4.75 7.18999 4.62V1.35C7.18999 0.609998 6.59 0 5.84 0H2.98C2.24 0 1.63 0.599998 1.63 1.35V4.62C1.63 4.75 1.68 4.87999 1.77 4.96999C0.659997 5.79999 0 7.10999 0 8.50999V16.9C0 17.64 0.609998 18.25 1.35 18.25H7.5L7.63 18.24H7.72C7.78 18.24 7.84 18.25 7.9 18.25H14.85C16.72 18.25 18.24 16.72 18.25 14.85V14.19C18.25 11.79 16.29 9.83 13.89 9.82H13.88ZM2.7 1.64V1.35C2.7 1.19 2.83 1.06 2.99 1.06H5.85C6.01 1.06 6.14 1.19 6.14 1.35V1.64H2.7ZM2.7 4.09V2.7H6.14V4.09H2.7ZM14.85 17.18H7.9L7.65 17.16C6.42 17.02 5.50999 15.95 5.57999 14.72C5.64999 13.49 6.66 12.52 7.9 12.52H13.83C14.55 12.52 15.14 13.11 15.14 13.83C15.14 14.55 14.55 15.14 13.83 15.14H8.92C8.65 15.14 8.43 14.92 8.43 14.65C8.43 14.38 8.65 14.16 8.92 14.16H13.62C13.91 14.16 14.15 13.92 14.15 13.63C14.15 13.34 13.91 13.1 13.62 13.1H8.92C8.06 13.1 7.36 13.8 7.36 14.66C7.36 15.52 8.06 16.21 8.92 16.21H13.83C15.14 16.21 16.2 15.15 16.2 13.84C16.2 12.53 15.14 11.47 13.83 11.47H7.9C7.74 11.47 7.61 11.34 7.61 11.18C7.61 11.02 7.74 10.89 7.9 10.89H13.88C15.7 10.89 17.18 12.37 17.18 14.19V14.85C17.18 16.13 16.13 17.18 14.85 17.18ZM7.78 9.82C7.35 9.86 6.96 10.1 6.74 10.48C6.52 10.85 6.49 11.3 6.65 11.69C5.58 12.11 4.79 13.06 4.56 14.2C4.35 15.28 4.68 16.4 5.43 17.19H1.35C1.19 17.19 1.06 17.06 1.06 16.9V8.50999C1.06 6.65999 2.57 5.16 4.42 5.16C6.27 5.16 7.77 6.65999 7.77 8.50999V9.82H7.78Z" fill="#D3AA74"/>
</svg>
