<svg width="20" height="11" viewBox="0 0 20 11" fill="none" xmlns="http://www.w3.org/2000/svg">
<path d="M18.21 0H1.19C0.530002 0.01 0 0.549999 0 1.21C0 1.76 0.379999 2.21 0.889999 2.36L1.94 6.03C2.28 7.22 3.37001 8.05 4.60001 8.08L4.10001 9.24C3.95001 9.58 4.11001 9.99 4.46001 10.13C4.55001 10.17 4.64 10.18 4.73 10.18C4.99 10.18 5.25 10.03 5.36 9.77L5.99001 8.3C6.02001 8.23 6.03001 8.15 6.04001 8.07H13.54C13.54 8.16 13.56 8.24 13.6 8.33L14.27 9.78C14.38 10.03 14.63 10.17 14.89 10.17C14.99 10.17 15.08 10.15 15.18 10.11C15.52 9.95 15.67 9.54 15.51 9.21L14.97 8.06C16.13 7.97 17.14 7.16 17.46 6.03L18.51 2.36C19.02 2.22 19.4 1.77 19.4 1.21C19.4 0.549999 18.87 0.02 18.21 0ZM16.64 5.79C16.42 6.57 15.72 7.14 14.9 7.21L14.36 7.25V7.22H5.28H4.63C3.77 7.2 3.01 6.61 2.77 5.79L1.94 2.87H17.49L16.65 5.79H16.64ZM18.18 1.56H1.21001C1.01001 1.56 0.850006 1.4 0.850006 1.2C0.850006 0.999997 1.01001 0.840004 1.21001 0.840004H18.18C18.38 0.840004 18.54 0.999997 18.54 1.2C18.54 1.4 18.38 1.56 18.18 1.56Z" fill="#D3AA74"/>
</svg>
