<svg width="18" height="18" viewBox="0 0 18 18" fill="none" xmlns="http://www.w3.org/2000/svg">
<path d="M16.9424 0.549988C16.8024 0.429988 16.6324 0.359985 16.4624 0.359985C16.3924 0.359985 16.3224 0.369984 16.2624 0.389984L13.4324 1.50999V6.48998L16.2624 7.60999C16.3324 7.62999 16.4024 7.63998 16.4624 7.63998C16.6324 7.63998 16.8024 7.57998 16.9424 7.45998C17.1524 7.28998 17.2724 7.02999 17.2724 6.75999V1.25999C17.2724 0.989987 17.1524 0.729982 16.9424 0.559982V0.549988ZM16.1324 6.33998L14.5624 5.71999V2.28999L16.1324 1.66998V6.33998Z" fill="#D3AA74"/>
<path d="M6.35239 9.16998C6.35239 9.16998 6.27239 9.21999 6.30239 9.25999C6.64239 9.81999 6.92239 10.42 7.14239 11.04C7.14239 11.06 7.17239 11.08 7.20239 11.08H7.72239C7.72239 11.08 7.78239 11.05 7.78239 11.02V9.22999C7.78239 9.22999 7.75239 9.16998 7.72239 9.16998H6.35239Z" fill="#D3AA74"/>
<path d="M5.93227 0.150002C5.53227 0.0500015 5.12227 0 4.72227 0C3.76227 0 2.84227 0.289996 2.07227 0.839996C0.962272 1.63 0.332272 2.86 0.332272 4.2C0.332272 4.21 0.332272 4.22 0.332272 4.24C0.342272 5.23 0.792271 6.19 1.60227 6.94C2.35227 7.65 2.84227 8.37 3.07227 9.17L4.36227 13.57C4.40227 13.69 4.46227 13.8 4.55227 13.89V15.02C4.71227 15.39 4.97227 15.71 5.32227 15.92C5.32227 16.18 4.89227 16.45 4.60227 16.45H4.51227C4.31227 16.45 4.12227 16.31 4.05227 16.12L1.78227 10.35C1.66227 10.04 1.45227 9.82 1.19227 9.7C1.06227 9.65 0.932271 9.62 0.782271 9.62C0.612271 9.62 0.432272 9.66 0.252272 9.73C0.0522723 9.8 -0.0477291 10.02 0.0222709 10.22C0.0822709 10.38 0.222271 10.48 0.382271 10.48C0.422271 10.48 0.472271 10.48 0.512271 10.46C0.522271 10.46 0.542272 10.45 0.552272 10.44C0.642272 10.4 0.722271 10.39 0.782271 10.39C0.822271 10.39 0.862272 10.39 0.892272 10.41C0.962272 10.44 1.02227 10.51 1.07227 10.63L3.33227 16.4C3.52227 16.9 3.98227 17.21 4.50227 17.21H4.59227C5.28227 17.21 6.08227 16.64 6.08227 15.91V14.1L6.48227 12.96C6.68227 12.42 6.70227 11.84 6.54227 11.28C6.50227 11.23 6.48227 11.16 6.48227 11.1C6.39227 10.85 6.27227 10.62 6.11227 10.4L5.97227 10.19C5.74227 9.87 5.57227 9.52 5.46227 9.15L5.44227 9.1C5.35227 8.83 5.39227 8.53 5.53227 8.28C5.66227 8.07 5.88227 7.91 6.12227 7.86C7.61227 7.49 12.2123 6.5 12.2123 6.5H12.5923V1.52H12.2123L5.93227 0.150002ZM11.4523 5.49C10.2023 5.76 7.05227 6.45 5.86227 6.75C5.32227 6.88 4.86227 7.2 4.54227 7.71C4.23227 8.23 4.16227 8.87 4.34227 9.42L4.36227 9.48C4.51227 9.98 4.74227 10.45 5.03227 10.85L5.19227 11.07C5.26227 11.17 5.33227 11.28 5.38227 11.4C5.40227 11.5 5.43227 11.6 5.48227 11.7C5.55227 11.99 5.53227 12.3 5.42227 12.59L5.33227 12.84L4.16227 8.85C3.87227 7.86 3.29227 6.97 2.38227 6.12C1.82227 5.59 1.50227 4.94 1.47227 4.28V4.21C1.47227 3.24 1.93227 2.35 2.74227 1.77C3.31227 1.36 4.00227 1.14 4.73227 1.14C5.04227 1.14 5.35227 1.18 5.70227 1.27L11.4723 2.52V5.5L11.4523 5.49Z" fill="#D3AA74"/>
</svg>
