<svg width="17" height="17" viewBox="0 0 17 17" fill="none" xmlns="http://www.w3.org/2000/svg">
<path d="M15.42 3.61C14.62 3.01 13.65 2.68 12.64 2.68C12.07 2.68 11.49 2.79 10.93 3.01C10.86 2.9 10.79 2.8 10.73 2.71L9.96 1.42C9.63 0.909998 9.25 0.5 8.62 0.5C8.35 0.5 8.04 0.570002 7.67 0.740002L3.44 2.65C2.4 3.07 2 4.01 2 4.88V15.61C2 16.05 2.36 16.41 2.8 16.41C3.24 16.41 3.6 16.05 3.6 15.61V5.73C3.6 4.86 3.83 4.35 5.04 3.79L7.46 2.7C7.86 2.51 8.14 2.43 8.35 2.43C8.8 2.43 8.89 2.82 9.14 3.34C9.26 3.6 9.34 3.79 9.42 3.99C8.7 4.7 8.23 5.62 8.08 6.6C8.01 7.07 8.38 7.45 8.81 7.45C8.91 7.45 9 7.43 9.1 7.39L8.77 6.75C8.77 6.75 8.76 6.72 8.76 6.7C8.89 5.86 9.29 5.06 9.9 4.47L10.22 4.16L10.06 3.74L10.03 3.67C9.96 3.48 9.88 3.28 9.76 3.04C9.72 2.96 9.69 2.89 9.66 2.82C9.47 2.39 9.17 1.75 8.36 1.75C8.04 1.75 7.68 1.85 7.19 2.08L4.77 3.18C3.43 3.8 2.94 4.49 2.94 5.73V15.61C2.94 15.68 2.88 15.74 2.81 15.74C2.74 15.74 2.68 15.68 2.68 15.61V4.88C2.68 4.52 2.78 3.65 3.72 3.27L7.95 1.36C8.21 1.24 8.44 1.18 8.62 1.18C8.86 1.18 9.07 1.28 9.38 1.77L10.16 3.08L10.25 3.21C10.28 3.26 10.32 3.31 10.35 3.37L10.65 3.85L11.18 3.64C11.65 3.45 12.14 3.36 12.64 3.36C13.49 3.36 14.33 3.64 15.01 4.14L8.84 6.78L9.11 7.4L15.28 4.76C15.75 4.56 15.83 3.92 15.43 3.61H15.42Z" fill="#D3AA74"/>
<path d="M14.8764 6.38L14.3164 6L14.3464 6.67C14.3664 7.13 14.5264 9.45999 15.4964 9.92999C15.5964 9.97999 15.7164 10.01 15.8664 10.01C16.0564 10.01 16.2964 9.95 16.5564 9.75C16.7864 9.58 16.9064 9.32 16.8964 9C16.8764 8.22 16.0864 7.18 14.8764 6.36999V6.38ZM16.1564 9.21999C15.9264 9.38999 15.8264 9.33999 15.7864 9.32999C15.4464 9.16999 15.2064 8.24999 15.0964 7.39999C15.8564 8.03999 16.2164 8.67 16.2164 9.03C16.2164 9.17 16.1664 9.19999 16.1464 9.21999H16.1564Z" fill="#D3AA74"/>
<path d="M10.5878 7.1499L10.3878 7.79991C10.2478 8.23991 9.60778 10.4899 10.3578 11.2499C10.4878 11.3799 10.6878 11.5099 11.0078 11.5099C11.1278 11.5099 11.2578 11.4899 11.4178 11.4499C11.6878 11.3699 11.8878 11.1599 11.9878 10.8699C12.2378 10.1299 11.8478 8.88991 10.9878 7.70991L10.5878 7.15991V7.1499ZM11.3478 10.6499C11.3078 10.7799 11.2478 10.7999 11.2278 10.7999C10.9478 10.8799 10.8678 10.7999 10.8478 10.7799C10.5878 10.5099 10.6678 9.56991 10.8478 8.72991C11.3378 9.58991 11.4678 10.2999 11.3478 10.6499Z" fill="#D3AA74"/>
<path d="M13.1976 8.5498L12.9776 9.1898C12.8276 9.6298 12.1176 11.8598 12.8476 12.6398C12.9776 12.7798 13.1876 12.9198 13.5276 12.9198C13.6376 12.9198 13.7576 12.8998 13.8976 12.8698C14.1676 12.7998 14.3776 12.5998 14.4876 12.2998C14.7576 11.5698 14.4076 10.3098 13.5776 9.1098L13.1976 8.5498ZM13.8576 12.0698C13.8076 12.1998 13.7476 12.2098 13.7276 12.2198C13.4476 12.2998 13.3676 12.2198 13.3476 12.1898C13.0876 11.9198 13.2076 10.9698 13.4176 10.1398C13.8876 11.0198 13.9876 11.7298 13.8576 12.0698Z" fill="#D3AA74"/>
</svg>
