<svg width="17" height="20" viewBox="0 0 17 20" fill="none" xmlns="http://www.w3.org/2000/svg">
<path d="M14.4 19.48C13.79 19.48 13.24 19.14 12.97 18.6L10.95 14.63H7.18C5.98 14.63 5 13.65 5 12.45V7.14999C5 5.96999 5.96 5 7.15 5C8.63 5 9.3 6.25999 9.3 7.14999V9.07001H11.5C12.24 9.07001 12.84 9.66999 12.84 10.4C12.84 10.67 12.75 10.93 12.58 11.17C12.5 11.28 12.41 11.37 12.31 11.45C12.77 11.56 13.16 11.86 13.37 12.29L15.84 17.14C16.04 17.52 16.07 17.96 15.94 18.37C15.81 18.78 15.52 19.11 15.14 19.3C14.91 19.42 14.67 19.47 14.41 19.47L14.4 19.48ZM7.14 6.04999C6.53 6.04999 6.04 6.53999 6.04 7.14999V12.45C6.04 13.07 6.55 13.58 7.17 13.58H11.58L13.89 18.13C14.03 18.39 14.37 18.51 14.64 18.37C14.77 18.3 14.87 18.19 14.92 18.05C14.97 17.91 14.95 17.76 14.89 17.63L12.42 12.78C12.32 12.59 12.13 12.48 11.92 12.48H8.23V10.71H11.47C11.58 10.71 11.65 10.64 11.69 10.58C11.75 10.49 11.75 10.44 11.75 10.42C11.75 10.26 11.62 10.13 11.46 10.13H8.22V7.16C8.22 6.88 8.02 6.06 7.12 6.06L7.14 6.04999Z" fill="#D3AA74"/>
<g clip-path="url(#clip0_40000828_91159)">
<path d="M6.22 19.38C2.79 19.38 0 16.59 0 13.16C0 10.44 1.82 7.98998 4.43 7.19998L5.11 7V9.78L4.8 9.91998C3.51 10.49 2.68 11.76 2.68 13.17C2.68 15.13 4.27 16.72 6.23 16.72C7.8 16.72 9.2 15.66 9.64 14.15L9.75 13.77H11.08L11.99 15.54L11.88 15.77C10.86 17.97 8.65 19.39 6.24 19.39L6.22 19.38ZM4.05 8.47C2.25 9.31 1.04 11.14 1.04 13.16C1.04 16.01 3.36 18.33 6.21 18.33C8.13 18.33 9.9 17.25 10.79 15.54L10.46 14.89C9.76 16.59 8.08 17.75 6.21 17.75C3.67 17.75 1.61 15.69 1.61 13.15C1.61 11.45 2.55 9.89001 4.04 9.10001V8.45999L4.05 8.47Z" fill="#D3AA74"/>
</g>
<path d="M7.37 5.73999C6.06 5.73999 5 4.68 5 3.37C5 2.06 6.06 1 7.37 1C8.68 1 9.74 2.06 9.74 3.37C9.74 4.68 8.68 5.73999 7.37 5.73999ZM7.37 2.04999C6.64 2.04999 6.05 2.64 6.05 3.37C6.05 4.1 6.64 4.69 7.37 4.69C8.1 4.69 8.69 4.1 8.69 3.37C8.69 2.64 8.1 2.04999 7.37 2.04999Z" fill="#D3AA74"/>
<defs>
<clipPath id="clip0_40000828_91159">
<rect width="12" height="13" fill="white" transform="translate(0 7)"/>
</clipPath>
</defs>
</svg>
