<svg xmlns="http://www.w3.org/2000/svg" width="64" height="64" viewBox="0 0 64 64" fill="none"><g opacity="0.9"><rect width="64" height="64" rx="6" fill="#FAFAFA"></rect><path d="M25.2802 25.22C28.3802 25.22 30.9002 22.7 30.9002 19.6C30.9002 16.5 28.3802 14 25.2802 14C22.1802 14 19.6602 16.52 19.6602 19.62C19.6602 22.72 22.1802 25.24 25.2802 25.24V25.22ZM21.1602 19.62C21.1602 17.36 23.0002 15.52 25.2602 15.52C27.5202 15.52 29.3602 17.36 29.3602 19.62C29.3602 21.88 27.5202 23.72 25.2602 23.72C23.0002 23.72 21.1602 21.88 21.1602 19.62Z" fill="#D3AA74"></path><path d="M38.6602 27.2798C41.4202 27.2798 43.6402 25.0398 43.6402 22.2998C43.6402 19.5598 41.4002 17.3198 38.6602 17.3198C35.9202 17.3198 33.6602 19.5598 33.6602 22.2998C33.6602 25.0398 35.9002 27.2798 38.6602 27.2798ZM35.1802 22.2998C35.1802 20.3798 36.7402 18.8198 38.6602 18.8198C40.5802 18.8198 42.1402 20.3798 42.1402 22.2998C42.1402 24.2198 40.5802 25.7798 38.6602 25.7798C36.7402 25.7798 35.1802 24.2198 35.1802 22.2998Z" fill="#D3AA74"></path><path d="M48.08 32.24L48.04 32.12H48.02C47.68 31.3 47.18 30.56 46.54 29.9C45.88 29.22 45.1 28.7 44.24 28.32C43.34 27.94 42.38 27.74 41.4 27.74H35.74C34.98 27.74 34.22 27.86 33.48 28.1C33.28 28.16 33.14 28.3 33.04 28.48C32.96 28.66 32.94 28.86 33 29.06C33.1 29.36 33.4 29.56 33.72 29.56C33.8 29.56 33.88 29.56 33.96 29.52C34.54 29.32 35.12 29.22 35.74 29.22H41.4C42.18 29.22 42.94 29.38 43.64 29.68C44.32 29.98 44.94 30.4 45.46 30.94C45.98 31.48 46.38 32.1 46.66 32.78C46.96 33.5 47.1 34.26 47.08 35.02C47.04 37.38 46.46 39.38 45.38 40.94C44.68 41.94 43.78 42.78 42.68 43.38C41.5 44.04 40.1 44.48 38.5 44.66C38.16 44.7 37.84 44.62 37.54 44.42C37.2 44.18 36.98 43.82 36.92 43.4C36.84 42.62 37.4 41.92 38.18 41.82C40.46 41.56 42.04 40.74 43.04 39.3C43.8 38.2 44.2 36.72 44.24 34.94C44.24 34.52 43.92 34.18 43.5 34.18C43.1 34.2 42.74 34.5 42.74 34.92C42.72 36.42 42.4 37.6 41.8 38.46C41.06 39.52 39.82 40.14 38 40.34C37.86 40.34 37.74 40.38 37.62 40.42C37.08 39.1 35.78 38.24 34.34 38.24H29.92C28.42 38.24 27.1 39.18 26.58 40.56C26.4 40.5 26.2 40.46 26.02 40.44C23.9 40.2 22.44 39.48 21.58 38.24C20.88 37.24 20.52 35.86 20.48 34.12C20.48 33.7 20.14 33.38 19.72 33.38C19.52 33.38 19.32 33.46 19.18 33.62C19.04 33.76 18.96 33.96 18.98 34.16C19.02 36.2 19.48 37.86 20.34 39.12C21.46 40.74 23.26 41.68 25.84 41.96C26.3 42.02 26.72 42.24 27 42.6C27.3 42.96 27.42 43.42 27.36 43.88C27.3 44.36 27.06 44.8 26.72 45.06L26.64 45.12C26.3 45.36 25.84 45.46 25.44 45.42C23.6 45.22 21.96 44.72 20.6 43.94C19.32 43.22 18.28 42.26 17.46 41.1C16.2 39.28 15.54 36.96 15.48 34.24C15.48 33.34 15.62 32.46 15.96 31.62C16.28 30.82 16.76 30.1 17.38 29.48C18 28.86 18.72 28.36 19.52 28.02C20.34 27.66 21.22 27.48 22.14 27.48H28.54C29.46 27.48 30.36 27.66 31.18 28.04C31.54 28.2 32 28.04 32.18 27.66C32.34 27.28 32.18 26.84 31.8 26.66C30.76 26.2 29.68 25.98 28.56 25.98H22.16C21.04 25.98 19.96 26.2 18.94 26.64C17.96 27.06 17.08 27.66 16.32 28.44C15.56 29.2 14.98 30.1 14.58 31.06C14.18 32.08 14 33.16 14 34.28C14.06 37.32 14.82 39.9 16.24 41.98C17 43.08 17.96 44.02 19.06 44.78V47.44C19.06 47.86 19.4 48.2 19.82 48.2C20.24 48.2 20.58 47.86 20.58 47.44V45.66C21.98 46.32 23.56 46.76 25.3 46.96C25.66 47 26.04 46.96 26.38 46.9V47.44C26.38 47.86 26.72 48.2 27.14 48.2C27.56 48.2 27.9 47.86 27.9 47.44V46.1C28.46 45.58 28.82 44.86 28.9 44.1C29 43.24 28.76 42.38 28.2 41.7C28.1 41.58 28.02 41.48 27.92 41.4C28.12 40.48 28.94 39.8 29.9 39.8H34.32C35.22 39.8 36 40.38 36.26 41.22C35.62 41.84 35.3 42.74 35.4 43.64C35.48 44.36 35.82 45.02 36.36 45.5V47.46C36.36 47.88 36.7 48.22 37.12 48.22C37.54 48.22 37.88 47.88 37.88 47.46V46.2C38.14 46.24 38.4 46.24 38.66 46.2C40.14 46.04 41.48 45.66 42.66 45.12V47.44C42.66 47.86 43 48.2 43.42 48.2C43.84 48.2 44.18 47.86 44.18 47.44V44.26C45.14 43.6 45.96 42.78 46.62 41.84C47.88 40.02 48.54 37.74 48.6 35.08C48.6 34.1 48.44 33.14 48.08 32.24Z" fill="#D3AA74"></path><path d="M28.0781 33.6801C28.0781 35.9001 29.8981 37.7201 32.1181 37.7201C34.3381 37.7201 36.1581 35.9001 36.1581 33.6801C36.1581 31.4601 34.3381 29.6401 32.1181 29.6401C29.8981 29.6401 28.0781 31.4601 28.0781 33.6801ZM34.6581 33.6801C34.6581 35.0801 33.5181 36.2201 32.1381 36.2201C30.7581 36.2201 29.5981 35.0801 29.5981 33.6801C29.5981 32.2801 30.7381 31.1401 32.1381 31.1401C33.5381 31.1401 34.6581 32.2801 34.6581 33.6801Z" fill="#D3AA74"></path></g></svg>