<svg width="25" height="15" viewBox="0 0 25 15" fill="none" xmlns="http://www.w3.org/2000/svg">
<path d="M2.17 10.5446C2.95 10.1046 3.83 9.6146 5.13 10.4546C5.72 10.8346 6.36 11.0246 7 11.0246C7.75 11.0246 8.49 10.7646 9.12 10.2446C10.35 9.2346 11.21 9.7146 12.2 10.2746C13.19 10.8246 14.31 11.4546 15.76 10.2446C16.74 9.4346 18.06 9.39461 19.04 10.1546C20.51 11.2946 22.95 10.9446 23.91 9.8546C24.09 9.6446 23.95 9.3146 23.85 9.1646C23.7 8.9446 23.54 8.9646 23.47 8.9946C23.29 9.0646 23.1 9.16461 22.89 9.26461C22.19 9.63461 21.31 10.1046 20.09 9.4146L20.02 9.37459C19.62 9.15459 19.02 8.8146 18.81 8.4946L17.58 6.6946C18.61 7.2646 19.7 7.2446 20.67 6.5946C21.3 6.1746 21.72 5.52461 21.86 4.76461C22 3.97461 21.82 3.17461 21.35 2.51461C20.43 1.22461 18.63 0.904607 17.34 1.79461C16.42 2.42461 16 3.43461 16.13 4.60461L13.35 0.654608C12.95 0.0846081 12.06 -0.155395 11.3 0.104605L5.5 2.04461C4.61 2.34461 4.03 3.3346 4.25 4.1646C4.38 4.6446 4.73 5.0846 5.19 5.3346C5.61 5.5646 6.08 5.61459 6.51 5.48459L10.74 4.1646C10.97 4.3446 11.21 4.61459 11.37 4.87459L4.52 8.9746C3.25 8.6646 2.27 9.1446 1.51 9.6446L0 10.2646L0.17 10.4846C0.82 11.3046 1.5 10.9246 2.16 10.5546L2.17 10.5446ZM12.9 5.01461C12.32 4.14461 11.89 3.61461 11.29 2.93461L11.2 2.8346L6.15 4.40461C6.09 4.42461 5.94 4.40461 5.76 4.29461C5.54 4.16461 5.42 4.0146 5.41 3.9446C5.36 3.7246 5.62 3.2146 5.86 3.1346L11.38 1.26461C11.59 1.19461 12.08 1.2146 12.43 1.2746L17.4 8.40461C16.45 8.45461 15.78 8.85461 15.18 9.21461C14.33 9.72461 13.72 10.0846 12.61 9.2246C10.87 7.8746 9.7 8.5846 8.67 9.2246C7.77 9.7746 6.99 10.2546 5.84 9.5346L13.02 5.2046L12.9 5.0246V5.01461ZM20.69 3.6046C20.86 4.05461 20.83 4.54459 20.63 4.98459C20.43 5.41459 20.08 5.72459 19.66 5.87459C18.77 6.18459 17.8 5.77461 17.41 4.90461C17.2 4.44461 17.19 3.8946 17.39 3.4446C17.52 3.1446 17.81 2.7446 18.41 2.5546C19.53 2.1946 20.4 2.8146 20.69 3.5946V3.6046Z" fill="#D3AA74"/>
<path d="M23.95 11.9946C23.76 11.8746 23.54 11.9946 23.18 12.1746C22.45 12.5546 21.24 13.1946 19.86 12.2146C18.38 11.1546 16.57 11.1946 15.13 12.3146C14.19 13.0546 13.45 12.6646 12.52 12.1846C11.4 11.6046 10.13 10.9446 8.38003 12.3846C7.30003 13.2746 6.49003 12.8746 5.55003 12.4046C4.59003 11.9246 3.50003 11.3846 2.06003 12.3246C1.63003 12.6046 1.07003 12.7746 0.410028 12.9646L0.0300293 13.0746L0.100029 13.2846C0.210029 13.6146 0.430028 13.8446 0.740028 13.9346C1.26003 14.0946 1.92003 13.8346 2.34003 13.5046C3.43003 12.6646 4.24003 13.0546 5.18003 13.5046C5.76003 13.7946 6.39003 14.0946 7.11003 14.0946C7.74003 14.0946 8.44003 13.8646 9.25003 13.1946C10.32 12.3146 11.11 12.7446 12.04 13.2346C13.09 13.7946 14.29 14.4346 15.99 13.1346C16.96 12.3946 18.2 12.3946 19.24 13.1446C20.52 14.0646 22.09 14.0146 23.06 13.5546C23.68 13.2646 24.05 12.8146 24.09 12.3346C24.1 12.1646 24.05 12.0446 23.95 11.9746V11.9946Z" fill="#D3AA74"/>
</svg>
