<svg width="27" height="14" viewBox="0 0 27 14" fill="none" xmlns="http://www.w3.org/2000/svg">
<path fill-rule="evenodd" clip-rule="evenodd" d="M25.51 11.55H1.14C0.509999 11.55 0 10.99 0 10.29V1.26001C0 0.57001 0.509999 0 1.14 0H25.51C26.14 0 26.65 0.56001 26.65 1.26001V10.28C26.65 10.98 26.13 11.55 25.51 11.55ZM1.14 0.75C0.889999 0.75 0.680008 0.98001 0.680008 1.26001V10.29C0.680008 10.57 0.889999 10.8 1.14 10.8H25.51C25.75 10.8 25.96 10.57 25.97 10.28V1.26001C25.97 0.98001 25.76 0.76001 25.51 0.76001H1.14V0.75Z" fill="#D3AA74"/>
<path fill-rule="evenodd" clip-rule="evenodd" d="M6.02995 13.39H2.79996C2.60996 13.39 2.44995 13.22 2.44995 13.01V11.16C2.44995 10.95 2.59996 10.78 2.79996 10.78H6.02995C6.20995 10.78 6.37996 10.95 6.37996 11.16V13.01C6.37996 13.22 6.21995 13.39 6.02995 13.39ZM3.13995 12.64H5.68996V11.54H3.13995V12.64Z" fill="#D3AA74"/>
<path fill-rule="evenodd" clip-rule="evenodd" d="M23.87 13.39H20.64C20.46 13.39 20.29 13.22 20.29 13.01V11.16C20.29 10.95 20.44 10.78 20.64 10.78H23.87C24.06 10.78 24.22 10.95 24.22 11.16V13.01C24.22 13.22 24.07 13.39 23.87 13.39ZM20.98 12.64H23.53V11.54H20.98V12.64Z" fill="#D3AA74"/>
<path fill-rule="evenodd" clip-rule="evenodd" d="M14.9299 9.23999H2.00993C1.82993 9.23999 1.66992 9.06999 1.66992 8.85999V2.67999C1.66992 2.46999 1.81993 2.29999 2.00993 2.29999H14.9299C15.1099 2.29999 15.2699 2.46999 15.2699 2.67999V8.85999C15.2699 9.06999 15.1099 9.23999 14.9299 9.23999ZM2.35992 8.48999H14.5899V3.06H2.35992V8.48999Z" fill="#D3AA74"/>
<path fill-rule="evenodd" clip-rule="evenodd" d="M13.06 7.70001H3.88004C3.69004 7.70001 3.53003 7.53001 3.53003 7.32001V4.22998C3.53003 4.01998 3.68004 3.84998 3.88004 3.84998H13.06C13.24 3.84998 13.4 4.01998 13.4 4.22998V7.32001C13.4 7.53001 13.24 7.70001 13.06 7.70001ZM4.22003 6.95001H12.72V4.60999H4.22003V6.95001Z" fill="#D3AA74"/>
<path fill-rule="evenodd" clip-rule="evenodd" d="M18.49 6.77997H16.82C16.64 6.77997 16.47 6.60996 16.47 6.39996V4.56C16.47 4.35 16.62 4.17999 16.82 4.17999H18.49C18.68 4.17999 18.84 4.35 18.84 4.56V6.39996C18.84 6.60996 18.68 6.77997 18.49 6.77997ZM17.17 6.02997H18.15V4.94H17.17V6.02997Z" fill="#D3AA74"/>
<path fill-rule="evenodd" clip-rule="evenodd" d="M21.5701 6.77997H19.9001C19.7101 6.77997 19.55 6.60996 19.55 6.39996V4.56C19.55 4.35 19.7001 4.17999 19.9001 4.17999H21.5701C21.7501 4.17999 21.91 4.35 21.91 4.56V6.39996C21.91 6.60996 21.7501 6.77997 21.5701 6.77997ZM20.25 6.02997H21.2401V4.94H20.25V6.02997Z" fill="#D3AA74"/>
<path fill-rule="evenodd" clip-rule="evenodd" d="M24.6499 6.77997H22.9799C22.7999 6.77997 22.6399 6.60996 22.6399 6.39996V4.56C22.6399 4.35 22.7899 4.17999 22.9799 4.17999H24.6499C24.8399 4.17999 24.9999 4.35 24.9999 4.56V6.39996C24.9999 6.60996 24.8399 6.77997 24.6499 6.77997ZM23.3299 6.02997H24.3199V4.94H23.3299V6.02997Z" fill="#D3AA74"/>
</svg>
