<svg width="16" height="16" viewBox="0 0 16 16" fill="none" xmlns="http://www.w3.org/2000/svg">
<path d="M11.9 3.70279C9.39 1.19279 5.92 -0.147149 2.39 0.012851C2.02 0.022851 1.73 0.332802 1.75 0.712802C1.75 0.892802 1.84 1.07284 1.97 1.19284C2.1 1.31284 2.26 1.37282 2.45 1.35282C5.6 1.21282 8.72 2.4228 10.95 4.6528C13.4 7.1128 14.57 10.4928 14.18 13.9228C14.16 14.1028 14.21 14.2728 14.32 14.4128C14.43 14.5528 14.59 14.6428 14.79 14.6628H14.85C15.19 14.6628 15.48 14.4128 15.52 14.0728C15.96 10.2228 14.64 6.44279 11.9 3.70279Z" fill="#D3AA74"/>
<path d="M2.96003 3.51288C2.86003 3.51288 2.77003 3.51288 2.67003 3.51288C2.31003 3.52288 2.03003 3.83283 2.03003 4.21283C2.03003 4.40283 2.13003 4.59284 2.28003 4.72284C2.41003 4.83284 2.57003 4.88285 2.73003 4.86285C4.90003 4.80285 6.96003 5.61282 8.48003 7.14282C10.13 8.79282 10.95 11.0728 10.72 13.3928C10.68 13.7628 10.95 14.0929 11.34 14.1329H11.39C11.74 14.1329 12.02 13.8728 12.05 13.5328C12.31 10.8028 11.36 8.13287 9.42003 6.19287C7.71003 4.48287 5.37003 3.52283 2.96003 3.52283V3.51288Z" fill="#D3AA74"/>
<path d="M2.64002 6.98286C2.28002 7.01286 2.00003 7.32288 2.01003 7.69288C2.04003 8.05288 2.34002 8.32289 2.72002 8.32289C3.96002 8.25289 5.15003 8.71283 6.02003 9.58283C6.95003 10.5128 7.41002 11.8029 7.26002 13.1129C7.24002 13.2929 7.29003 13.4629 7.40003 13.6029C7.49003 13.7129 7.61003 13.7928 7.75003 13.8328V13.8629H7.92002C8.27002 13.8629 8.55003 13.6129 8.59003 13.2629C8.78003 11.5429 8.18002 9.85288 6.96002 8.63288C5.82002 7.50288 4.25002 6.90286 2.64002 6.98286Z" fill="#D3AA74"/>
<path d="M0.869999 10.5429C0.309999 11.1029 0 11.8528 0 12.6428C0 13.4328 0.309999 14.1829 0.869999 14.7429C1.42 15.3029 2.17 15.6129 2.97 15.6129C3.76 15.6129 4.51 15.3029 5.07 14.7429C5.63 14.1829 5.94 13.4328 5.94 12.6428C5.94 11.8528 5.63 11.1029 5.07 10.5429C3.91 9.38285 2.02 9.38285 0.860001 10.5429H0.869999ZM4.61 12.6428C4.61 13.0828 4.44 13.4929 4.13 13.8029C3.49 14.4429 2.44 14.4429 1.81 13.8029C1.5 13.4929 1.33 13.0828 1.33 12.6428C1.33 12.2028 1.5 11.7929 1.81 11.4829C2.12 11.1829 2.54 11.0029 2.97 11.0029C3.4 11.0029 3.82 11.1729 4.13 11.4829C4.44 11.7929 4.61 12.2028 4.61 12.6428Z" fill="#D3AA74"/>
</svg>
