<svg width="25" height="19" viewBox="0 0 25 19" fill="none" xmlns="http://www.w3.org/2000/svg">
<path d="M16.94 6.37C17.29 6.74 17.01 7.25 16.5 7.18C16.25 7.15 16.06 6.87001 15.87 6.75001C13.59 5.17001 10.92 5.16001 8.63996 6.75001C8.34996 6.96001 8.03997 7.41005 7.59997 7.10005C7.09997 6.75005 7.68996 6.27004 7.99996 6.03004C9.65996 4.74004 12.14 4.32003 14.23 4.90003C15.07 5.13003 16.37 5.77 16.95 6.37H16.94Z" fill="#D3AA74"/>
<path d="M11.87 6.50002C13.01 6.41002 14.3 6.76001 15.18 7.43001C15.44 7.63001 15.79 7.90007 15.6 8.24007C15.25 8.90007 14.57 8.16003 14.22 7.95003C13.1 7.28003 11.6 7.26007 10.44 7.86007C10.12 8.03007 9.67 8.50007 9.36 8.49007C8.92 8.49007 8.73 8.09002 8.98 7.75002C9.47 7.08002 11.01 6.57002 11.87 6.50002Z" fill="#D3AA74"/>
<path d="M10.46 9.70002C10.01 9.30002 10.6 8.85004 10.99 8.66004C11.74 8.29004 12.73 8.28001 13.48 8.63001C13.85 8.80001 14.43 9.17005 14.14 9.61005C13.77 10.1501 13.23 9.53003 12.88 9.40003C12.49 9.27003 12.06 9.27003 11.66 9.40003C11.3 9.52003 10.87 10.07 10.46 9.70002Z" fill="#D3AA74"/>
<path d="M12.21 10.2C13.56 10.13 13.66 12.02 12.29 12.07C10.99 12.11 10.88 10.27 12.21 10.2Z" fill="#D3AA74"/>
<path d="M23.17 0H1.27C0.580004 0.14 0.17 0.569993 0 1.17999V14.59L0.139999 14.97C0.239999 15.24 0.89 15.77 1.18 15.77H10.21V16.75L10.13 16.81L4.39 17.69C3.84 18.09 4.09 18.61 4.82 18.56C6.73 18.43 8.85 17.79 10.77 17.65C13.89 17.43 16.87 18.19 19.92 18.57C20.48 18.63 20.63 17.87 20.16 17.69L14.42 16.81L14.34 16.75V15.77H23.32C23.86 15.77 24.6 14.94 24.54 14.44V1.33002C24.47 0.630017 23.94 0.09 23.17 0ZM23.53 13.76C23.53 14.14 23.19 14.44 22.76 14.44H1.9C1.47 14.44 1.13 14.14 1.13 13.76V1.77002C1.13 1.39002 1.47 1.09003 1.9 1.09003H22.76C23.19 1.09003 23.53 1.39002 23.53 1.77002V13.76Z" fill="#D3AA74"/>
</svg>
