<svg width="25" height="19" viewBox="0 0 25 19" fill="none" xmlns="http://www.w3.org/2000/svg">
<path d="M23.17 0H1.26999C0.579989 0.14 0.17 0.569993 0 1.17999V14.59L0.139999 14.97C0.239999 15.24 0.889993 15.77 1.17999 15.77H10.21V16.75L10.13 16.81L4.39 17.69C3.84 18.09 4.08999 18.61 4.81999 18.56C6.72999 18.43 8.84999 17.79 10.77 17.65C13.89 17.43 16.87 18.19 19.92 18.57C20.48 18.63 20.63 17.87 20.16 17.69L14.42 16.81L14.34 16.75V15.77H23.32C23.86 15.77 24.6 14.94 24.54 14.44V1.33002C24.47 0.630017 23.94 0.09 23.17 0ZM23.53 13.76C23.53 14.14 23.19 14.44 22.76 14.44H1.89999C1.46999 14.44 1.12999 14.14 1.12999 13.76V1.77002C1.12999 1.39002 1.46999 1.09003 1.89999 1.09003H22.76C23.19 1.09003 23.53 1.39002 23.53 1.77002V13.76Z" fill="#D3AA74"/>
</svg>
