<svg width="15" height="17" viewBox="0 0 15 17" fill="none" xmlns="http://www.w3.org/2000/svg">
<path d="M14.0085 4.01001C13.8685 3.77001 13.5585 3.68002 13.3185 3.83002L10.9485 5.20001L11.3585 3.67999C11.4285 3.40999 11.2685 3.13 10.9985 3.06C10.7285 2.99 10.4485 3.14998 10.3785 3.41998L9.70854 5.91998L7.53852 7.16998V4.66998L9.36854 2.84003C9.56854 2.64003 9.56854 2.32 9.36854 2.13C9.16854 1.94 8.84852 1.93 8.65852 2.13L7.54853 3.23999V0.51001C7.54853 0.23001 7.31852 0 7.03852 0C6.75852 0 6.52854 0.23001 6.52854 0.51001V3.23999L5.41853 2.13C5.21853 1.93 4.89854 1.93 4.70854 2.13C4.51854 2.33 4.50854 2.65003 4.70854 2.84003L6.53852 4.66998V7.16998L4.36854 5.91998L3.69853 3.41998C3.62853 3.14998 3.34853 3 3.07853 3.06C2.80853 3.13 2.64852 3.40999 2.71852 3.67999L3.12852 5.20001L0.758525 3.83002C0.518525 3.69002 0.208522 3.77001 0.0685224 4.01001C-0.0714776 4.25001 0.00852489 4.56001 0.258525 4.70001L2.62852 6.07001L1.10853 6.47998C0.838531 6.54998 0.678546 6.83004 0.748546 7.10004C0.808546 7.32004 1.00854 7.47003 1.23854 7.47003L1.36854 7.45001L3.86854 6.78003L6.03852 8.03003L3.86854 9.28003L1.36854 8.60999C1.09854 8.53999 0.818546 8.70003 0.748546 8.97003C0.678546 9.24003 0.838531 9.52003 1.10853 9.59003L2.62852 10L0.258525 11.37C0.0185249 11.51 -0.0614775 11.82 0.0685224 12.06C0.158522 12.22 0.328525 12.31 0.508525 12.31C0.598525 12.31 0.678525 12.29 0.758525 12.24L3.12852 10.87L2.71852 12.39C2.64852 12.66 2.80853 12.94 3.07853 13.01L3.20854 13.03C3.42854 13.03 3.63853 12.88 3.69853 12.66L4.36854 10.16L6.53852 8.91003V11.41L4.70854 13.24C4.50854 13.44 4.50854 13.76 4.70854 13.95C4.80854 14.05 4.93852 14.1 5.06852 14.1C5.19852 14.1 5.32854 14.05 5.42854 13.95L6.53852 12.84V15.58C6.53852 15.86 6.76853 16.09 7.04853 16.09C7.32853 16.09 7.55854 15.86 7.55854 15.58V12.84L8.66853 13.95C8.86853 14.15 9.18852 14.15 9.37852 13.95C9.56852 13.75 9.57852 13.43 9.37852 13.24L7.54853 11.41V8.91003L9.71852 10.16L10.3885 12.66C10.4485 12.89 10.6485 13.03 10.8785 13.03L11.0085 13.01C11.2785 12.94 11.4385 12.66 11.3685 12.39L10.9585 10.87L13.3285 12.24L13.5785 12.31C13.7485 12.31 13.9185 12.22 14.0185 12.06C14.1585 11.82 14.0785 11.51 13.8285 11.37L11.4585 10L12.9785 9.59003C13.2485 9.52003 13.4085 9.24003 13.3385 8.97003C13.2685 8.70003 12.9885 8.53999 12.7185 8.60999L10.2185 9.28003L8.04853 8.03003L10.2185 6.78003L12.7185 7.45001L12.8485 7.47003C13.0685 7.47003 13.2785 7.32004 13.3385 7.10004C13.4085 6.83004 13.2485 6.54998 12.9785 6.47998L11.4585 6.07001L13.8285 4.70001C14.0685 4.56001 14.1485 4.25001 14.0185 4.01001H14.0085Z" fill="#D3AA74"/>
</svg>
