<svg width="18" height="17" viewBox="0 0 18 17" fill="none" xmlns="http://www.w3.org/2000/svg">
<path d="M16.57 13.3H15.43V9.02997C15.43 8.74997 15.21 8.52997 14.93 8.52997H14.37V0.5C14.37 0.22 14.15 0 13.87 0H3.20001C2.92001 0 2.70001 0.22 2.70001 0.5V8.52997H2.13C1.85 8.52997 1.63 8.74997 1.63 9.02997V13.3H0.5C0.22 13.3 0 13.52 0 13.8V16C0 16.28 0.22 16.5 0.5 16.5H16.57C16.85 16.5 17.07 16.28 17.07 16V13.8C17.07 13.52 16.85 13.3 16.57 13.3ZM4.76999 9.52997H5.89999V13.3H4.76999V9.52997ZM6.89999 9.52997H8.03V13.3H6.89999V9.52997ZM9.03 9.52997H10.17V13.3H9.03V9.52997ZM11.17 9.52997H12.3V13.3H11.17V9.52997ZM13.3 9.52997H14.43V13.3H13.3V9.52997ZM13.37 8.52997H9.03V1H13.37V8.52997ZM3.70001 1H8.03V8.52997H3.70001V1ZM2.63 9.52997H3.76999V13.3H2.63V9.52997ZM16.07 15.5H1V14.3H16.07V15.5Z" fill="#D3AA74"/>
</svg>
