<svg width="28" height="18" viewBox="0 0 28 18" fill="none" xmlns="http://www.w3.org/2000/svg">
<path d="M13.89 17.01C13.55 17.01 13.2 16.92 12.9 16.74C12.44 16.47 12.1 16.02 11.97 15.51H11.41C10.98 15.51 10.59 15.32 10.32 15.02L1.78 15.88C1.73 15.88 1.67 15.88 1.62 15.88C0.740001 15.88 0 15.15 0 14.25C0 13.29 0.79 12.5 1.74 12.5H11.44H11.48L11.74 10.91C11.87 10.1 12.57 9.5 13.38 9.5V4.5H12.89C12.07 4.5 11.4 3.82 11.4 3V2.60999C11.1 2.33999 10.9 1.92999 10.9 1.48999V0.48999C10.9 0.35999 10.96 0.230015 11.05 0.140015C11.14 0.0500146 11.27 0 11.4 0H16.35C16.63 0 16.85 0.22 16.85 0.5V1.5C16.85 1.94 16.66 2.34 16.35 2.62V3.01001C16.35 3.83001 15.68 4.51001 14.87 4.51001H14.37V9.51001C15.19 9.51001 15.89 10.12 16.02 10.93L16.28 12.52H26.03C26.98 12.52 27.77 13.31 27.77 14.27C27.77 15.17 27.03 15.9 26.15 15.9C26.1 15.9 26.04 15.9 25.99 15.9L17.46 15.04C17.19 15.34 16.8 15.53 16.37 15.53H15.81C15.68 16.04 15.35 16.49 14.88 16.76C14.57 16.94 14.23 17.03 13.89 17.03M13.03 15.51C13.12 15.66 13.24 15.79 13.39 15.88C13.54 15.97 13.71 16.01 13.89 16.01C14.07 16.01 14.23 15.97 14.39 15.88C14.54 15.79 14.67 15.66 14.75 15.51H13.03ZM17.77 13.51C17.83 13.67 17.86 13.83 17.86 14.01V14.06L26.1 14.89C26.1 14.89 26.14 14.89 26.17 14.89C26.51 14.89 26.79 14.62 26.79 14.26C26.79 13.84 26.46 13.51 26.05 13.51H17.78M1.74 13.51C1.33 13.51 1 13.84 1 14.26C1 14.62 1.27 14.89 1.62 14.89C1.64 14.89 1.67 14.89 1.69 14.89L9.93 14.06V14.01C9.93 13.83 9.96 13.67 10.02 13.51H1.75M11.41 13.51C11.13 13.51 10.91 13.72 10.91 14.01C10.91 14.3 11.12 14.51 11.41 14.51H16.36C16.65 14.51 16.86 14.29 16.86 14.01C16.86 13.73 16.65 13.51 16.36 13.51H11.41ZM13.4 10.51C13.06 10.51 12.78 10.75 12.72 11.09L12.49 12.51H15.29L15.06 11.09C15.01 10.75 14.72 10.51 14.38 10.51H13.41M12.4 3.01001C12.4 3.29001 12.61 3.51001 12.89 3.51001H14.88C15.16 3.51001 15.37 3.30001 15.37 3.01001H12.4ZM11.9 1.01001V1.51001C11.9 1.79001 12.12 2.01001 12.4 2.01001H15.37C15.65 2.01001 15.87 1.79001 15.87 1.51001V1.01001H11.9Z" fill="#D3AA74"/>
</svg>
