<svg width="21" height="20" viewBox="0 0 21 20" fill="none" xmlns="http://www.w3.org/2000/svg">
<path d="M11.14 0.97998V0H10L1.13 0.0200195H0V1L0.0500031 17.85C0.0500031 18.78 1 19.53 2.15 19.53L9.09 19.51C10.25 19.51 11.19 18.75 11.19 17.82L11.14 0.969971V0.97998ZM9.10001 18.54L2.16 18.56C1.63 18.56 1.19 18.24 1.19 17.85L1.14 1L10.01 0.97998L10.04 11.02C8.68 8.75002 7.2 7.54002 6.05 6.90002H9.45V1.81H1.74001V6.90002H3.49001C3.57001 7.07002 3.72 7.19002 3.91 7.21002C3.94 7.21002 7.07 7.58001 9.57 12.32C9.66 12.5 9.85 12.6 10.04 12.6L10.06 17.82C10.06 18.21 9.63001 18.53 9.10001 18.53V18.54ZM2.88 5.91998V2.78998H8.32V5.91998H2.88Z" fill="#D3AA74"/>
<path d="M19.7902 7.44H18.9002V5.88H19.7902C20.0102 5.88 20.1802 5.69999 20.1802 5.48999C20.1802 5.27999 20.0002 5.09998 19.7902 5.09998H11.0602C10.8402 5.09998 10.6702 5.27999 10.6702 5.48999C10.6702 5.69999 10.8502 5.88 11.0602 5.88H11.9502V7.44H11.0602C10.8402 7.44 10.6702 7.62002 10.6702 7.83002C10.6702 8.04002 10.8502 8.21997 11.0602 8.21997H19.7902C20.0102 8.21997 20.1802 8.04002 20.1802 7.83002C20.1802 7.62002 20.0002 7.44 19.7902 7.44ZM18.1102 7.44H17.3302V5.88H18.1102V7.44ZM15.8002 5.87H16.5402V7.42999H15.8002V5.87ZM15.0102 7.44H14.2702V5.88H15.0102V7.44ZM12.7402 5.87H13.4802V7.42999H12.7402V5.87Z" fill="#D3AA74"/>
<path d="M14.4202 2.37V1.40002H10.1902V2.38H13.2802L13.3202 16.57C13.3202 16.9 12.9602 17.17 12.5102 17.17H10.1802V18.15H12.5102C13.5802 18.15 14.4502 17.43 14.4502 16.57L14.4102 2.38L14.4202 2.37Z" fill="#D3AA74"/>
</svg>
