<svg width="21" height="16" viewBox="0 0 21 16" fill="none" xmlns="http://www.w3.org/2000/svg">
<path d="M20.97 1.29999C20.97 0.829988 20.66 0.45001 20.4 0.26001C20.16 0.0900098 19.89 0 19.62 0C19.47 0 19.32 0.0299561 19.17 0.0799561C18.62 0.269956 18.25 0.789995 18.25 1.37V2.51996L18.21 3.53998H2.71999V3.51996L2.7 1.26001C2.7 0.51001 2 0 1.35 0H1.32C0.59 0.02 0 0.610007 0 1.32001V13.99C0 14.29 0.0999954 14.57 0.299995 14.78C0.499995 14.99 0.779994 15.1 1.07999 15.1H1.68999C1.96999 15.1 2.22 14.98 2.42 14.78C2.63 14.56 2.74 14.27 2.73 13.96C2.73 13.73 2.73 13.53 2.73 13.33H17.36H17.54H18.23C18.23 13.33 18.26 13.36 18.26 13.37V14C18.26 14.28 18.36 14.56 18.55 14.76C18.75 14.97 19.01 15.09 19.3 15.1H19.9C20.21 15.1 20.48 14.99 20.69 14.78C20.89 14.57 21 14.29 21 13.99V1.29999H20.97ZM2.7 4.53998C2.7 4.53998 2.71 4.5 2.73 4.5H4.1V10.55C4.1 10.59 4.09 10.6 4.09 10.61H2.71V4.53998H2.7ZM5.09 4.5H6.07999L6.45 4.51996V10.55C6.45 10.55 6.45 10.6 6.43999 10.61H5.06V4.53998C5.06 4.53998 5.06 4.52001 5.06 4.51001C5.06 4.51001 5.08 4.51001 5.09 4.51001V4.5ZM7.42 4.51001C7.42 4.51001 7.42999 4.5 7.43999 4.5H8.78C8.78 4.5 8.82 4.49997 8.82 4.52997V10.56C8.82 10.56 8.81 10.6 8.8 10.61H7.42V4.97998V4.51001ZM9.78 10.6V4.5H11.14C11.14 4.5 11.16 4.5 11.17 4.5C11.17 4.5 11.17 4.51997 11.17 4.52997V10.54C11.17 10.54 11.17 10.59 11.16 10.6H9.78ZM13.52 10.6H12.74L12.13 10.58C12.13 10.58 12.13 10.58 12.13 10.57V4.52997C12.13 4.52997 12.16 4.5 12.17 4.5H13.53V10.6H13.52ZM14.5 4.51001C14.5 4.51001 14.5 4.51 14.51 4.5H15.86C15.86 4.5 15.88 4.50996 15.89 4.51996V10.61H14.95L14.5 10.59V5.58997V4.51001ZM18.24 4.53998V10.6H17.54L16.85 10.57V4.51001H18.22C18.23 4.51001 18.25 4.50999 18.25 4.54999L18.24 4.53998ZM19.18 12.73C19.14 12.53 18.95 12.38 18.73 12.38H17.04L15.25 12.37H14.63L13.2 12.38H2.31C2.12 12.38 1.97 12.43 1.87 12.53C1.78 12.62 1.74 12.74 1.74 12.88V14C1.74 14.06 1.71 14.14 1.67 14.14H1.06C1.01 14.14 0.93 14.12 0.93 14.01V1.33997C0.93 1.11997 1.13 0.969961 1.31 0.959961C1.49 0.959961 1.73 1.10001 1.73 1.32001V11.02C1.73 11.35 1.93 11.56 2.24 11.56H18.7C18.99 11.56 19.19 11.34 19.19 11.02V1.32001C19.19 1.10001 19.43 0.959961 19.59 0.959961C19.79 0.959961 20 1.10997 20 1.33997V14.01C20 14.09 19.96 14.13 19.87 14.13H19.32C19.32 14.13 19.24 14.12 19.22 14.1C19.2 14.08 19.19 14.05 19.19 14.01V13.19C19.19 13.19 19.2 13.08 19.21 12.94C19.21 12.91 19.2 12.83 19.17 12.72L19.18 12.73Z" fill="#D3AA74"/>
</svg>
