<svg width="18" height="18" viewBox="0 0 18 18" fill="none" xmlns="http://www.w3.org/2000/svg">
<path d="M9.92001 9.7801C10.16 10.1001 10.29 10.5201 10.25 10.9801C10.17 11.8101 9.55001 12.4701 8.81001 12.4901C7.96001 12.5201 7.26001 11.7501 7.26001 10.8001C7.26001 10.3601 7.42001 9.96011 7.67001 9.67011L8.01001 9.29011C8.30001 8.96011 8.33002 8.43011 8.08002 8.07011C8.06002 8.03011 8.08001 7.97011 8.12001 7.98011C8.80001 8.05011 9.33002 8.69011 9.33002 9.48011C9.33002 9.87011 9.29001 10.2501 9.21001 10.6101C9.21001 10.6501 9.25001 10.6901 9.28001 10.6701C9.58001 10.5001 9.78001 10.1801 9.82001 9.79011C9.82001 9.75011 9.89002 9.72011 9.91002 9.76011L9.92001 9.7801Z" fill="#D3AA74"/>
<path d="M17 17.5H0.5C0.22 17.5 0 17.28 0 17V14.6C0 13.99 0.489991 13.5 1.09999 13.5H16.4C17.01 13.5 17.5 13.99 17.5 14.6V17C17.5 17.28 17.28 17.5 17 17.5ZM1 16.5H16.5V14.6C16.5 14.55 16.46 14.5 16.4 14.5H1.09999C1.03999 14.5 1 14.54 1 14.6V16.5Z" fill="#D3AA74"/>
<path d="M15.5 14.5H2C1.72 14.5 1.5 14.28 1.5 14V3.35001C1.5 2.74001 1.98999 2.25 2.59999 2.25H14.9C15.51 2.25 16 2.74001 16 3.35001V14C16 14.28 15.78 14.5 15.5 14.5ZM2.5 13.5H15V3.35001C15 3.30001 14.96 3.25 14.9 3.25H2.59999C2.53999 3.25 2.5 3.29001 2.5 3.35001V13.5Z" fill="#D3AA74"/>
<path d="M12.5 14.5H5C4.72 14.5 4.5 14.28 4.5 14V9.5C4.5 7.16 6.41 5.25 8.75 5.25C11.09 5.25 13 7.16 13 9.5V14C13 14.28 12.78 14.5 12.5 14.5ZM5.5 13.5H12V9.5C12 7.71 10.54 6.25 8.75 6.25C6.96 6.25 5.5 7.71 5.5 9.5V13.5Z" fill="#D3AA74"/>
<path d="M17 3.25H0.5C0.22 3.25 0 3.03 0 2.75C0 2.47 0.22 2.25 0.5 2.25H17C17.28 2.25 17.5 2.47 17.5 2.75C17.5 3.03 17.28 3.25 17 3.25Z" fill="#D3AA74"/>
<path d="M15.5 1H2C1.72 1 1.5 0.78 1.5 0.5C1.5 0.22 1.72 0 2 0H15.5C15.78 0 16 0.22 16 0.5C16 0.78 15.78 1 15.5 1Z" fill="#D3AA74"/>
</svg>
