<svg width="18" height="12" viewBox="0 0 18 12" fill="none" xmlns="http://www.w3.org/2000/svg">
<path d="M15.97 0.00994873H15.36H1.27C0.950004 0.0299487 0.649998 0.159963 0.419998 0.399963C0.149998 0.669963 0 1.05999 0 1.42999C0.01 2.15999 0.550009 2.74 1.29001 2.81H3.77L7.31 6.34998L3.48 10.18C3.3 10.36 3.21 10.6 3.22 10.85C3.22 11.11 3.35001 11.37 3.54001 11.54C3.73001 11.7 3.94 11.79 4.17 11.79C4.43 11.79 4.7 11.67 4.91 11.45L8.67 7.69L12.51 11.52C12.68 11.69 12.91 11.78 13.15 11.78C13.43 11.78 13.7 11.66 13.88 11.45C14.22 11.06 14.2 10.5 13.82 10.12L10.03 6.32996L13.57 2.78998H16.03C16.8 2.71998 17.35 2.11 17.34 1.37C17.33 0.619995 16.72 0.01 16 0L15.97 0.00994873ZM4.33 10.98C4.22 11.09 4.07001 11.07 3.99001 10.98C3.91001 10.89 3.93 10.76 4.02 10.66L7.97 6.70996C8.09 6.81996 8.18 6.90997 8.28 7.02997L4.33 10.98ZM13.26 10.64C13.38 10.76 13.39 10.85 13.33 10.95C13.28 11.03 13.1 11.1 13 11L4.59 2.57996C4.81 2.55996 4.98 2.55995 5.2 2.56995L13.26 10.63V10.64ZM6.47 2.79999H10.83L8.65001 4.98999L6.47 2.79999ZM9.35001 5.95996C9.22001 5.88996 9.13 5.78997 9.02 5.65997L12.1 2.57996C12.3 2.55996 12.5 2.55996 12.72 2.57996L9.35001 5.94995V5.95996ZM16.23 1.69995C16.14 1.78995 16.02 1.83997 15.87 1.83997H1.43001C1.29001 1.83997 1.16001 1.78995 1.07001 1.69995C0.990007 1.61995 0.949997 1.50995 0.949997 1.38995C0.949997 1.06995 1.22 0.959961 1.47 0.959961H15.85C16.14 0.959961 16.34 1.12995 16.35 1.38995C16.35 1.50995 16.31 1.61995 16.23 1.69995Z" fill="#D3AA74"/>
</svg>
