<svg width="15" height="9" viewBox="0 0 15 9" fill="none" xmlns="http://www.w3.org/2000/svg">
<g clip-path="url(#clip0_40000829_113786)">
<path d="M11.3041 3.69C11.3041 4.45 10.7341 4.90002 10.0441 4.90002H5.86413C5.76413 4.90002 5.60414 4.81005 5.55414 4.74005C5.32414 4.42005 5.88414 3.53002 6.16414 3.27002C6.66414 2.79002 7.34414 2.52002 8.05414 2.52002L10.9341 2.5C11.1441 2.5 11.3141 2.70002 11.3141 2.90002V3.69H11.3041ZM10.5041 3.85004C10.5141 3.63004 10.5141 3.46003 10.5041 3.28003L8.03415 3.30005C7.41415 3.30005 6.80414 3.56 6.46414 4.13H10.0941C10.2441 4.13 10.4941 4.00005 10.5041 3.86005V3.85004Z" fill="#D3AA74"/>
</g>
<g clip-path="url(#clip1_40000829_113786)">
<path d="M0 8.44168H12.1L12.04 7.67167L11.88 6.16172C11.86 5.97172 11.74 5.78168 11.62 5.62168C12.19 4.74168 13.12 5.4017 13.13 4.6417V3.61167C13.7 3.42167 14.18 2.9517 14.18 2.3317V0.391697C14.19 0.141697 14 -0.0183177 13.75 0.00168229C13.59 0.0116823 13.42 0.181697 13.42 0.391697V2.22171C13.42 2.42171 13.3 2.67171 13.12 2.72171C13.22 2.05171 12.88 1.27169 12.15 1.26169L8.71001 1.24167C5.85001 1.22167 3.88001 3.06169 2.65001 5.45169C2.08001 5.45169 1.54001 5.66171 1.26001 6.15171L0 8.45169V8.44168ZM8.64 2.01169H11.96C12.18 2.01169 12.35 2.1617 12.35 2.3917V4.3317C11.65 4.4617 11.11 4.82169 10.8 5.45169H3.54001C4.62001 3.46169 6.32 2.01169 8.64 2.01169ZM1.87001 6.61167C1.98001 6.40167 2.25 6.22171 2.52 6.22171H11.1L11.25 7.67167H1.31001L1.88 6.61167H1.87001Z" fill="#D3AA74"/>
</g>
<defs>
<clipPath id="clip0_40000829_113786">
<rect width="6" height="3" fill="white" transform="translate(5.5 2.5)"/>
</clipPath>
<clipPath id="clip1_40000829_113786">
<rect width="15" height="9" fill="white"/>
</clipPath>
</defs>
</svg>
