<svg width="23" height="21" viewBox="0 0 23 21" fill="none" xmlns="http://www.w3.org/2000/svg">
<path d="M21.87 2.10999H7.11C6.85 2.10999 6.69 2.38 6.69 2.56V3.72998H5.44C5.48 2.09998 4.29001 0.71999 2.67001 0.48999C2.66001 0.35999 2.62001 0.219995 2.53001 0.119995C2.46001 0.0399951 2.36001 0 2.26001 0H0.420013C0.210013 0 0 0.230022 0 0.460022V19.96C0 20.22 0.200012 20.42 0.450012 20.42H21.85C22.13 20.42 22.35 20.22 22.35 19.96V2.59003C22.35 2.31003 22.15 2.10999 21.87 2.10999ZM17.12 19.47H16.63V18.92H17.12V19.47ZM15.68 18.92V19.48H11.07V18.92H15.68ZM10.11 19.48H9.63V18.92H10.1V19.48H10.11ZM3.13 2.88C2.78 2.44 2.62001 1.91001 2.67001 1.45001C3.76001 1.67001 4.53 2.62001 4.5 3.70001C4 3.65001 3.5 3.35 3.13 2.88ZM2.67001 5.72003V4.67999H6.69V5.72003H2.67001ZM16.5 14.17V14.57C16.36 14.53 16.23 14.5 16.12 14.5H14.29C13.97 14.5 13.67 14.61 13.39 14.84C13.1 14.61 12.81 14.5 12.51 14.5H10.73C10.58 14.5 10.43 14.53 10.29 14.57L10.27 14.11C10.25 13.6 9.9 13.16 9.36 12.95V12.86C9.34 12.54 9.32001 12.23 9.40001 11.93C9.47001 11.63 9.86001 11.35 10.21 11.35H16.72C17.12 11.35 17.53 11.65 17.58 11.97C17.62 12.22 17.62 12.47 17.61 12.73C17.61 12.79 17.61 12.85 17.61 12.9C16.98 13.06 16.55 13.56 16.53 14.17H16.5ZM10.39 15.59C10.48 15.5 10.62 15.44 10.76 15.44H12.39C12.59 15.44 12.87 15.56 12.89 15.82C12.9 15.99 12.9 16.16 12.89 16.36H10.27V15.88C10.27 15.74 10.33 15.64 10.38 15.59H10.39ZM13.85 15.84C13.85 15.64 14.06 15.44 14.27 15.44H16.12C16.29 15.44 16.48 15.67 16.48 15.83V16.35H13.85V15.84ZM8.41 17.63V14.23C8.41 14.1 8.48001 14 8.54001 13.95C8.63001 13.87 8.75001 13.82 8.87001 13.82C8.87001 13.82 8.88001 13.82 8.89001 13.82C9.14001 13.83 9.33 14.03 9.33 14.29V16.8C9.33 17.09 9.53 17.3 9.83 17.3H16.96C17.09 17.3 17.21 17.25 17.3 17.16C17.39 17.07 17.45 16.94 17.45 16.8V14.37C17.45 14.18 17.49 13.86 17.86 13.82C17.98 13.82 18.13 13.85 18.23 13.94C18.29 14 18.37 14.1 18.37 14.25V17.62C18.37 17.82 18.22 17.98 18.03 17.98H8.78001C8.68001 17.98 8.59 17.94 8.52 17.88C8.45 17.82 8.42001 17.73 8.42001 17.64L8.41 17.63ZM18.07 18.92C18.39 18.9 18.69 18.77 18.91 18.56C19.15 18.33 19.28 18.02 19.28 17.69V14.23C19.28 13.73 19.01 13.28 18.53 13.02C18.53 12.88 18.53 12.74 18.53 12.6C18.53 12.36 18.53 12.12 18.5 11.84C18.4 11.15 17.72 10.41 16.86 10.41H10.06C9.22001 10.41 8.43 11.15 8.41 11.96L8.38 12.94C7.92 13.13 7.48001 13.56 7.48001 14.12V17.7C7.48001 18.01 7.6 18.29 7.83 18.52C8.06 18.74 8.37 18.88 8.69 18.91V19.47H5.36V9.37H21.42V19.47H18.08V18.91L18.07 18.92ZM7.63 5.72003V3.06H21.4V5.72003H7.63ZM21.4 8.44H0.950012V6.66998H21.4V8.44ZM4.41 11.63H0.950012V9.38H4.41V11.63ZM0.950012 0.950012H1.73001V5.71002H0.950012V0.950012ZM4.41 12.57V14.29H0.950012V12.56H4.41V12.57ZM4.41 16.97H0.950012V15.25H4.41V16.97ZM4.41 19.48H0.950012V17.91H4.41V19.48Z" fill="#D3AA74"/>
</svg>
