<svg width="19" height="17" viewBox="0 0 19 17" fill="none" xmlns="http://www.w3.org/2000/svg">
<path d="M18.36 1.41998C18.36 0.529983 17.55 5.28166e-09 16.77 5.28166e-09C16.7 5.28166e-09 16.63 -5.12637e-05 16.56 0.00994874C16.53 0.00994874 16.51 0.00994874 16.48 0.00994874C16.43 0.00994874 16.38 0.00994874 16.32 0.00994874C16.26 0.00994874 16.2 0.00994874 16.14 0.00994874C15.98 0.00994874 15.78 0.0299805 15.71 0.22998C15.64 0.45998 15.64 0.70998 15.65 0.97998C15.65 1.06998 15.65 1.14999 15.65 1.23999H14.94C14.88 0.50999 14.36 0.00994874 13.64 0.00994874H1.28998C0.949978 0.00994874 0.629984 0.129956 0.389984 0.329956C0.139984 0.549956 0 0.859951 0 1.19995V15.16C0 15.85 0.669978 16.28 1.28998 16.28H13.65C14.36 16.28 14.89 15.77 14.95 15.04H15.66V15.91C15.66 16.06 15.88 16.28 16.03 16.28L16.93 16.2599C17.71 16.2499 18.37 15.61 18.37 14.86V1.40997L18.36 1.41998ZM17.32 0.969971C17.43 1.05997 17.57 1.21998 17.57 1.47998V14.9C17.57 15.29 17.15 15.5 16.76 15.5C16.64 15.5 16.54 15.48 16.45 15.44V0.849976C16.55 0.809976 16.65 0.789978 16.79 0.789978C16.99 0.789978 17.18 0.849961 17.32 0.959961V0.969971ZM14.92 13.64H15.64L15.65 14.25H14.92V13.64ZM15.65 12.8199C15.5 12.8299 15.35 12.84 15.2 12.84C15.11 12.84 15.02 12.84 14.92 12.84V3.44995H15.65V12.8199ZM14.92 2.03998H15.64V2.64996H14.92V2.03998ZM14.12 1.26996V15.0099C14.12 15.2799 13.96 15.45 13.65 15.49H1.28C0.969999 15.49 0.769989 15.3 0.769989 15V1.21997C0.809989 0.969971 0.950001 0.829988 1.22 0.799988H13.7C13.85 0.829988 14.13 0.919958 14.13 1.26996H14.12Z" fill="#D3AA74"/>
<path d="M12.3901 2.13995H2.5101C2.2801 2.17995 2.15011 2.29996 2.11011 2.51996V13.77C2.15011 14 2.2801 14.12 2.5101 14.16H12.4201H12.4301C12.6501 14.08 12.7401 13.97 12.7801 13.78V2.52997C12.7401 2.30997 12.6101 2.17995 12.3901 2.13995ZM11.9901 13.36H2.89011V2.92999H11.9901V13.36Z" fill="#D3AA74"/>
<path d="M10.6599 9.84998C10.5299 9.63998 10.4099 9.46999 10.4099 9.17999V7.90997C10.4099 7.79997 10.3699 7.68998 10.2799 7.59998C10.1999 7.51998 10.0899 7.46997 9.98993 7.46997H8.63992C8.56992 7.46997 8.46992 7.51998 8.38992 7.59998C8.30992 7.67998 8.25992 7.77998 8.25992 7.84998V9.16998C8.25992 9.43998 8.14993 9.61996 8.01993 9.82996C7.85993 10.08 7.68994 10.35 7.68994 10.83V12.31C7.68994 12.54 7.92992 12.71 8.13992 12.71H10.5699C10.7599 12.71 10.9899 12.53 10.9899 12.31V10.83C10.9899 10.34 10.8199 10.07 10.6599 9.83997V9.84998ZM10.1899 10.83V11.91H8.47992V10.91C8.47992 10.6 8.57994 10.44 8.71994 10.22C8.83994 10.03 8.97994 9.81996 9.05994 9.45996H9.61993C9.69993 9.79996 9.83993 10.02 9.95993 10.22C10.0899 10.43 10.1899 10.59 10.1899 10.83ZM9.06992 8.26996H9.60992V8.65997H9.05994V8.26996H9.06992Z" fill="#D3AA74"/>
<path d="M6.8699 9.84998C6.7399 9.63998 6.6199 9.45998 6.6199 9.16998V7.90997C6.6199 7.79997 6.57991 7.68999 6.49991 7.60999C6.41991 7.52999 6.2999 7.47998 6.1799 7.47998H4.8399C4.6999 7.47998 4.47989 7.69997 4.47989 7.83997V9.17999C4.47989 9.46999 4.35989 9.64999 4.22989 9.85999C4.07989 10.1 3.8999 10.37 3.8999 10.85V12.34C3.8999 12.44 3.94989 12.54 4.03989 12.62C4.12989 12.7 4.2299 12.74 4.3299 12.74H6.8299C6.9899 12.73 7.19989 12.51 7.19989 12.35V10.86C7.19989 10.38 7.0199 10.1 6.8699 9.87V9.84998ZM5.2699 8.64996V8.26996H5.81989L5.8399 8.64996H5.27991H5.2699ZM4.9299 10.23C5.0499 10.04 5.1799 9.82998 5.2699 9.47998C5.3599 9.47998 5.50988 9.46997 5.65988 9.46997C5.72988 9.46997 5.7899 9.46997 5.8399 9.46997C5.9199 9.81997 6.05989 10.03 6.16989 10.22C6.29989 10.43 6.40988 10.6 6.40988 10.91V11.91H4.68991V10.9C4.68991 10.6 4.7899 10.43 4.9299 10.22V10.23Z" fill="#D3AA74"/>
<path d="M3.89999 7.08997H10.93C11.19 7.08997 11.37 6.93996 11.38 6.70996C11.38 6.59996 11.35 6.49999 11.28 6.42999C11.2 6.33999 11.07 6.29999 10.93 6.29999H3.89999C3.79999 6.29999 3.7 6.34999 3.62 6.42999C3.54 6.50999 3.5 6.61996 3.5 6.70996C3.5 6.88996 3.67999 7.08997 3.89999 7.08997Z" fill="#D3AA74"/>
<path d="M4.65008 5.87994C4.71008 5.87994 4.77007 5.88 4.83007 5.87C5.14007 5.82 5.42006 5.65996 5.60006 5.39996C5.78006 5.14996 5.85007 4.82995 5.80007 4.50995C5.71007 3.96995 5.22008 3.56995 4.68008 3.56995C4.62008 3.56995 4.55008 3.56997 4.49008 3.58997C4.18008 3.63997 3.91007 3.80995 3.73007 4.06995C3.55007 4.32995 3.48006 4.64 3.54006 4.94C3.65006 5.5 4.11007 5.88995 4.67007 5.88995L4.65008 5.87994ZM4.32006 4.62994C4.34006 4.53994 4.39009 4.45998 4.47009 4.41998C4.52009 4.38998 4.59006 4.37 4.66006 4.37C4.79006 4.37 4.91009 4.42996 4.97009 4.51996C5.06009 4.65996 5.03006 4.90995 4.88006 5.00995C4.83006 5.04995 4.76008 5.06995 4.68008 5.06995C4.56008 5.06995 4.44006 5.01999 4.38006 4.92999C4.32006 4.84999 4.30006 4.72994 4.32006 4.62994Z" fill="#D3AA74"/>
<path d="M7.44009 5.87994C7.50009 5.87994 7.55007 5.88 7.61007 5.87C7.92007 5.82 8.20006 5.65997 8.38006 5.40997C8.56006 5.15997 8.63007 4.83996 8.58007 4.51996C8.49007 3.97996 8.00007 3.56995 7.45007 3.56995C7.39007 3.56995 7.32007 3.56997 7.26007 3.58997C6.95007 3.63997 6.68009 3.81 6.50009 4.06C6.32009 4.32 6.25008 4.62999 6.31008 4.92999C6.42008 5.48999 6.88009 5.87994 7.44009 5.87994ZM7.10006 4.63995C7.12006 4.53995 7.17009 4.46999 7.25009 4.42999C7.30009 4.39999 7.37009 4.37994 7.44009 4.37994C7.57009 4.37994 7.69009 4.43997 7.75009 4.52997C7.84009 4.66997 7.82008 4.91997 7.65008 5.02997C7.60008 5.05997 7.53008 5.07996 7.46008 5.07996C7.33008 5.07996 7.22006 5.02995 7.16006 4.94995C7.10006 4.86995 7.08007 4.74995 7.11007 4.63995H7.10006Z" fill="#D3AA74"/>
<path d="M10.2199 5.87994C10.2799 5.87994 10.3299 5.88 10.3899 5.87C10.7099 5.82 10.9799 5.65996 11.1699 5.39996C11.3499 5.14996 11.4199 4.82996 11.3699 4.51996C11.2799 3.97996 10.7899 3.57996 10.2399 3.57996C10.1799 3.57996 10.1099 3.57998 10.0499 3.59998C9.73989 3.64998 9.46988 3.81995 9.28988 4.06995C9.10988 4.31995 9.03988 4.63999 9.09988 4.92999C9.20988 5.48999 9.66988 5.88995 10.2299 5.88995L10.2199 5.87994ZM9.87988 4.64996C9.89988 4.54996 9.9499 4.46999 10.0299 4.42999C10.0899 4.39999 10.1499 4.37994 10.2199 4.37994C10.3499 4.37994 10.4599 4.43998 10.5299 4.53998C10.6199 4.66998 10.5899 4.91997 10.4299 5.02997C10.3799 5.05997 10.3199 5.07996 10.2499 5.07996C10.1199 5.07996 9.99991 5.03 9.93991 4.94C9.87991 4.86 9.85988 4.74996 9.87988 4.64996Z" fill="#D3AA74"/>
</svg>
