<svg width="19" height="22" viewBox="0 0 19 22" fill="none" xmlns="http://www.w3.org/2000/svg">
<path d="M18.18 14.08C18.18 13.98 18.16 13.87 18.14 13.8L15.91 3.07001C15.69 2.29001 15.16 1.65005 14.45 1.30005L12.03 0.0600586L6.45 0L3.75 1.30005C3.03 1.66005 2.5 2.30006 2.27 3.12006L0.0599995 13.77C0.0199995 13.89 0 14.02 0 14.22C0 14.52 0.109999 14.81 0.279999 15.04C0.539999 15.42 0.950002 15.67 1.4 15.72L2.87 15.91L2.58 19.55C2.52 19.99 2.66 20.43 2.96 20.77C3.25 21.1 3.67 21.29 4.12 21.29H14.09C14.32 21.29 14.53 21.24 14.73 21.15C15.34 20.86 15.7 20.22 15.62 19.57L15.32 15.91L16.77 15.72C17.22 15.67 17.64 15.4301 17.89 15.0601C18.06 14.8201 18.16 14.54 18.18 14.22V14.08ZM8.05 13.32V20.1801H7.54V13.32H8.05ZM11.28 11.83V15.96H10.77V11.83H11.28ZM11.96 17.45V13.32H12.47V17.45H11.96ZM11.96 12.64V12.13H13.91L13.95 12.64H11.96ZM8.73 13.32H10.09V16.28L10.17 16.54L10.41 16.64H11.27V17.77L11.35 18.03L11.59 18.14H12.79H12.83C13 18.12 13.13 17.98 13.13 17.8V13.33H13.99L14.51 19.65L14.49 19.8701C14.43 20.0501 14.26 20.1801 14.06 20.1801H8.72V13.32H8.73ZM13.82 6.83002L13.59 6.95001L13.52 7.19L13.86 11.44H11.95L11.87 11.26V11.2401L11.64 11.14H10.44C10.27 11.14 10.12 11.27 10.1 11.44H9.28L12.99 1.77002L13.96 2.27002C14.18 2.38002 14.38 2.54003 14.54 2.72003C14.69 2.91003 14.8 3.12003 14.86 3.34003L17.08 14.01V14.03C17.12 14.17 17.08 14.3 17.01 14.42C16.93 14.53 16.8 14.6 16.66 14.61L14.83 14.85L14.68 12.95V12.9301C14.66 12.7401 14.64 12.55 14.63 12.35C14.62 12.14 14.6 11.93 14.58 11.73L14.2 7.14001L14.08 6.90002L13.83 6.81006L13.82 6.83002ZM8 11.44L11.92 1.23004L12.37 1.46002L8.54 11.44H7.99H8ZM3.63 11.77C3.62 11.96 3.6 12.16 3.58 12.35C3.56 12.56 3.54 12.76 3.53 12.96L3.38 14.85L1.55 14.6201C1.34 14.6001 1.16 14.44 1.11 14.23L1.13 14.02L3.35 3.35004C3.41 3.13004 3.52 2.92004 3.67 2.73004C3.83 2.54004 4.03 2.39003 4.25 2.28003L5.21 1.78003L8.1 9.29004L7.28 11.45H4.34L4.69 7.22003C4.7 7.03003 4.57 6.87004 4.38 6.85004C4.37 6.85004 4.36 6.85004 4.35 6.85004C4.17 6.85004 4.02 6.99004 4.02 7.17004L3.64 11.76V11.78L3.63 11.77ZM10.09 12.1201V12.63H4.23L4.27 12.1201H10.08H10.09ZM8.47 8.34003L5.82 1.46002L6.28 1.23004L8.75 7.63L8.48 8.34003H8.47ZM9.1 6.69L6.94 1.10004H11.25L9.1 6.69ZM6.87 13.32V20.1801H4.11C3.98 20.1801 3.85 20.12 3.77 20.02C3.68 19.92 3.65 19.79 3.67 19.65L4.19 13.32H6.88H6.87Z" fill="#D3AA74"/>
</svg>
