<svg width="17" height="17" viewBox="0 0 17 17" fill="none" xmlns="http://www.w3.org/2000/svg">
<path d="M7.85217 6.87L7.98216 4.10004C8.03216 3.03004 7.64216 1.98002 6.90216 1.21002C6.17216 0.440022 5.13217 0 4.07217 0C3.01217 0 1.97217 0.440022 1.24217 1.21002C0.502167 1.98002 0.112165 3.03004 0.162165 4.10004L0.292162 6.86005C0.102162 6.95005 -0.0178308 7.15 0.00216918 7.37L0.182169 9.29999C0.182169 9.43999 0.262166 9.57004 0.382166 9.67004C0.472166 9.74004 0.592164 9.77002 0.692164 9.77002L0.872164 13.41C0.952164 15.05 2.30217 16.34 3.95217 16.34H4.06217C5.77217 16.34 7.17216 15 7.26216 13.3L7.44216 9.78003C7.44216 9.78003 7.44217 9.78003 7.45217 9.78003C7.56217 9.78003 7.66217 9.74999 7.75217 9.67999C7.87217 9.58999 7.94217 9.46001 7.95217 9.32001L8.13217 7.38C8.15217 7.17 8.03217 6.98 7.84217 6.88L7.85217 6.87ZM6.83216 6.66003C5.87216 6.51003 4.97217 6.42999 4.06217 6.42999C3.15217 6.42999 2.25216 6.51003 1.30216 6.66003L1.18217 4.04999C1.14217 3.26999 1.43216 2.49004 1.98216 1.92004C2.52216 1.35004 3.28217 1.02002 4.07217 1.02002C4.86217 1.02002 5.62217 1.35004 6.16217 1.92004C6.71217 2.49004 7.00217 3.25999 6.96217 4.04999L6.84217 6.66003H6.83216ZM7.07217 7.73999L6.99217 8.66003C5.94217 8.47003 5.00217 8.37 4.06217 8.37C3.12217 8.37 2.18217 8.47003 1.14217 8.66003L1.05216 7.73999C3.11216 7.35999 4.99217 7.35999 7.06217 7.73999H7.07217ZM6.42217 9.60004L6.24217 13.26C6.18217 14.42 5.23217 15.32 4.07217 15.32H3.96217C2.86217 15.32 1.96217 14.46 1.91217 13.37L1.72216 9.60004C3.38216 9.33004 4.76217 9.33004 6.43217 9.60004H6.42217Z" fill="#D3AA74"/>
<path d="M16.0521 6.87L16.1821 4.10004C16.2321 3.04004 15.8421 1.99002 15.1021 1.21002C14.3621 0.440022 13.3321 0 12.2721 0C11.2121 0 10.1721 0.440022 9.44212 1.21002C8.71212 1.98002 8.32212 3.03004 8.36212 4.10004L8.49212 6.86005C8.30212 6.95005 8.18212 7.15 8.20212 7.37L8.38212 9.31C8.39212 9.45 8.47212 9.59004 8.58212 9.67004C8.67212 9.74004 8.78212 9.77002 8.90212 9.77002L9.08212 13.41C9.16212 15.05 10.5121 16.34 12.1521 16.34H12.2721C13.9721 16.34 15.3821 15 15.4621 13.3L15.6321 9.78003C15.7421 9.78003 15.8521 9.74999 15.9521 9.67999C16.0621 9.58999 16.1421 9.47001 16.1521 9.32001L16.3321 7.38C16.3521 7.17 16.2421 6.97001 16.0421 6.88L16.0521 6.87ZM15.2821 7.73999L15.2021 8.65002C14.1421 8.46002 13.2021 8.36005 12.2721 8.36005C11.3421 8.36005 10.4121 8.46002 9.35212 8.65002L9.27212 7.73004C11.3321 7.35004 13.1921 7.35004 15.2821 7.73004V7.73999ZM12.2721 1.03003C13.0721 1.03003 13.8121 1.34999 14.3621 1.92999C14.9021 2.49999 15.1921 3.27 15.1621 4.06L15.0421 6.67004C14.0821 6.52004 13.1721 6.44 12.2721 6.44C11.3721 6.44 10.4621 6.52004 9.51212 6.67004L9.39212 4.06C9.35212 3.27 9.64212 2.49999 10.1921 1.92999C10.7321 1.35999 11.4921 1.03003 12.2821 1.03003H12.2721ZM14.6321 9.60004L14.4521 13.26C14.3921 14.42 13.4421 15.32 12.2821 15.32H12.1721C11.0721 15.32 10.1721 14.46 10.1221 13.37L9.93212 9.60004C11.5821 9.33004 12.9721 9.33004 14.6421 9.60004H14.6321Z" fill="#D3AA74"/>
</svg>
