<svg width="17" height="13" viewBox="0 0 17 13" fill="none" xmlns="http://www.w3.org/2000/svg">
<path d="M14.63 0.929993H13.84C13.54 0.379993 12.96 0 12.29 0H4.09C3.54 0 3.11 0.399993 3.04 0.929993H1.8C0.810003 0.929993 0 1.73998 0 2.72998C0 3.71998 0.810003 4.52997 1.8 4.52997H2.57001V11.16C2.57001 12.02 3.25 12.69 4.11 12.69H10.76C11.62 12.69 12.31 12 12.31 11.16V10.32H12.96C13.57 10.32 14.07 9.82998 14.07 9.22998V4.52997H14.63C15.62 4.52997 16.43 3.71998 16.43 2.72998C16.43 1.73998 15.62 0.929993 14.63 0.929993ZM0.880005 2.72998C0.880005 2.21998 1.29 1.81 1.8 1.81H4.11C4.55 1.81 4.92001 2.19 4.92001 2.63V2.84998C4.92001 3.06998 4.83 3.24996 4.69 3.39996H2.57001V3.64001H1.8C1.29 3.64001 0.880005 3.22997 0.880005 2.71997V2.72998ZM11.43 11.16C11.43 11.53 11.13 11.81 10.76 11.81H4.11C3.74 11.81 3.45 11.53 3.45 11.16V4.52997H4.11C4.4 4.52997 4.68001 4.45001 4.92001 4.32001V9.20001C4.92001 9.94001 5.51 10.52 6.25 10.52H11.43V11.16ZM13.19 9.22998C13.19 9.35998 13.07 9.42999 12.96 9.42999H6.31001C6.18001 9.42999 6.09 9.34998 6.09 9.22998V2.83997C6.09 1.98997 5.61 1.25 4.9 0.880005H12.28C12.77 0.880005 13.18 1.28997 13.18 1.77997V9.22998H13.19ZM14.63 3.64996H14.36V1.81H14.63C15.14 1.81 15.55 2.21998 15.55 2.72998C15.55 3.23998 15.14 3.64996 14.63 3.64996Z" fill="#D3AA74"/>
</svg>
