<svg width="20" height="21" viewBox="0 0 20 21" fill="none" xmlns="http://www.w3.org/2000/svg">
<path d="M19.7501 4.03998V3.97998C19.7301 3.83998 19.6501 3.72001 19.5201 3.64001L19.4301 3.58997L10.6401 0.0299683L10.5501 0H10.4401L10.2301 0.0299683L1.43011 3.59998L1.34012 3.64001L1.22012 3.75L1.12012 4.03998V5.23999C1.12012 5.83999 1.63012 6.33002 2.26012 6.33002H6.67012C6.89012 6.33002 7.11013 6.26996 7.30013 6.14996C7.49013 6.26996 7.71011 6.33002 7.93011 6.33002H9.77011V14.52H10.8001V6.33002H12.9601C13.1801 6.33002 13.4001 6.26996 13.5901 6.14996C13.7801 6.26996 14.0001 6.33002 14.2201 6.33002H18.6301C19.2401 6.33002 19.7501 5.85997 19.7701 5.27997V4.04999L19.7501 4.03998ZM6.76012 4.53998V5.21997L6.63011 5.34998H2.26012L2.13011 5.21997V4.53998H6.76012ZM13.0601 4.53998V5.21997L12.9301 5.34998H7.94012L7.81012 5.21997V4.53998H13.0701H13.0601ZM8.38011 3.56L10.4201 1.23999L12.4701 3.56H8.38011ZM8.66011 1.72998L7.05013 3.56H4.15012L8.67012 1.72998H8.66011ZM13.8101 3.56L12.2001 1.72998L16.7201 3.56H13.8101ZM18.7201 4.53998V5.21997L18.5901 5.34998H14.2201L14.0901 5.21997V4.53998H18.7201Z" fill="#D3AA74"/>
<path d="M14.2 14.88H8.55L8 13.79C7.6 13 6.75 12.49 5.83 12.49H2.23999L2.09999 12.52L1 9.19C0.93 8.98 0.739995 8.83997 0.509995 8.83997C0.459994 8.83997 0.410001 8.83999 0.360001 8.85999H0.330002C0.150002 8.93999 0.02 9.09998 0 9.28998V9.37C0 9.37 0.00998901 9.43997 0.019989 9.46997L2.06 15.65V17.02L0.539993 19.9C0.479993 20.01 0.469995 20.14 0.509995 20.27C0.549995 20.4 0.649989 20.5 0.769989 20.56C0.839989 20.59 0.92 20.61 1 20.61C1.2 20.61 1.36999 20.51 1.45999 20.34L2.89 17.63H7.87999V20.42C7.87999 20.69 8.11 20.91 8.39 20.91C8.67 20.91 8.89999 20.69 8.89999 20.42V17.63H12.98L14.38 20.34C14.5 20.57 14.8 20.68 15.07 20.56C15.2 20.5 15.29 20.4 15.33 20.27C15.37 20.15 15.36 20.02 15.3 19.9L14.13 17.63H14.21C14.84 17.63 15.35 17.14 15.35 16.54V15.95C15.35 15.35 14.84 14.86 14.21 14.86L14.2 14.88ZM7.40999 14.88H2.87L2.40999 13.48H5.83C6.37 13.48 6.83999 13.76 7.06999 14.22L7.39999 14.88H7.40999ZM14.32 15.99V16.55L14.19 16.68H3.09V15.87H14.19L14.32 16V15.99Z" fill="#D3AA74"/>
</svg>
