<svg width="17" height="18" viewBox="0 0 17 18" fill="none" xmlns="http://www.w3.org/2000/svg">
<path d="M15.57 0H0.569992C0.249992 0 0 0.250007 0 0.570007V17.07C0 17.39 0.249992 17.64 0.569992 17.64H15.57C15.89 17.64 16.14 17.39 16.14 17.07V0.570007C16.14 0.250007 15.89 0 15.57 0ZM15 1.14001V16.5H1.14V1.14001H15Z" fill="#D3AA74"/>
<path d="M2.81999 4.14001C3.13999 4.14001 3.39 3.89001 3.39 3.57001V3.39001H7.31999C7.63999 3.39001 7.89 3.14001 7.89 2.82001C7.89 2.50001 7.63999 2.25 7.31999 2.25H2.81999C2.49999 2.25 2.25 2.50001 2.25 2.82001V3.57001C2.25 3.89001 2.49999 4.14001 2.81999 4.14001Z" fill="#D3AA74"/>
<path d="M3 10.32C3 13.12 5.27999 15.39 8.06999 15.39C10.86 15.39 13.14 13.12 13.14 10.32C13.14 7.52001 10.86 5.25 8.06999 5.25C5.27999 5.25 3 7.52001 3 10.32ZM4.14 10.32C4.14 8.15001 5.89999 6.39001 8.06999 6.39001C10.24 6.39001 12 8.15001 12 10.32C12 12.49 10.24 14.25 8.06999 14.25C5.89999 14.25 4.14 12.49 4.14 10.32Z" fill="#D3AA74"/>
<path d="M8.06999 12.39C9.20999 12.39 10.14 11.46 10.14 10.32C10.14 9.35001 9.46999 8.55001 8.57999 8.32001C8.61999 8.24001 8.64 8.16001 8.64 8.07001V7.32001C8.64 7.00001 8.38999 6.75 8.06999 6.75C7.74999 6.75 7.5 7.00001 7.5 7.32001V8.07001C7.5 8.16001 7.52 8.24001 7.56 8.32001C6.67 8.55001 6 9.35001 6 10.32C6 11.46 6.92999 12.39 8.06999 12.39ZM7.14 10.32C7.14 9.81001 7.55999 9.39001 8.06999 9.39001C8.57999 9.39001 9 9.81001 9 10.32C9 10.83 8.57999 11.25 8.06999 11.25C7.55999 11.25 7.14 10.83 7.14 10.32Z" fill="#D3AA74"/>
</svg>
