<svg width="21" height="16" viewBox="0 0 21 16" fill="none" xmlns="http://www.w3.org/2000/svg">
<path d="M20.35 5.47003C20.35 4.96003 20.15 4.48 19.78 4.12C19.42 3.75999 18.95 3.56 18.46 3.56H17.67V1.98004C17.67 1.45004 17.46 0.929998 17.08 0.559998C16.72 0.199998 16.24 0 15.73 0H4.59C4.06 0 3.57001 0.210027 3.21001 0.590027C2.85001 0.960027 2.65001 1.46004 2.65001 1.98004V3.57001H2.04001H2.02C1.47 3.57001 0.960002 3.78003 0.580002 4.16003C0.210002 4.53003 0 5.01999 0 5.54999V13.98C0 14.3 0.200009 14.63 0.540009 14.84C1.10001 15.2 1.84 15.19 2.44 14.8C2.75 14.55 2.91 14.26 2.91 13.94V12.6H17.45V14C17.46 14.39 17.72 14.65 18 14.86C18.29 15.03 18.6 15.11 18.91 15.11C19.25 15.11 19.59 15.01 19.87 14.81C20.18 14.59 20.35 14.28 20.35 13.95V5.48999V5.47003ZM19.23 13.85C19.16 13.92 19.06 13.95 18.9 13.95C18.78 13.95 18.65 13.92 18.57 13.86V11.98C18.57 11.68 18.31 11.44 18.01 11.44H2.35001C2.03001 11.44 1.78 11.69 1.78 12V13.85C1.69 13.92 1.59001 13.94 1.43001 13.95C1.28001 13.94 1.18001 13.91 1.12001 13.85V10.72H19.21V13.85H19.23ZM16.79 9.60004V5.52002C16.79 5.05002 17.15 4.68999 17.61 4.67999H18.41C18.87 4.69999 19.21 5.04 19.22 5.5V9.60999H16.79V9.60004ZM16.55 3.89001C16 4.26001 15.68 4.82001 15.68 5.45001V6.59003H4.7V5.41003C4.69 4.81003 4.35001 4.24 3.79001 3.87V1.89001C3.79001 1.49001 4.14001 1.14999 4.57001 1.10999H15.72C16.19 1.10999 16.56 1.49003 16.56 1.97003V3.89001H16.55ZM15.67 9.60004H4.7V7.71002H15.67V9.60004ZM1.98001 4.67999H2.76001C3.23001 4.69999 3.58001 5.07999 3.57001 5.54999V9.60004H1.13V5.5C1.15 5.03 1.51001 4.67999 1.98001 4.67999Z" fill="#D3AA74"/>
</svg>
