<svg width="19" height="19" viewBox="0 0 19 19" fill="none" xmlns="http://www.w3.org/2000/svg">
<path d="M12.5801 2.72003C12.3001 2.72003 12.0701 2.95003 12.0701 3.22003C12.0701 3.49003 12.2901 3.73004 12.5801 3.73004C12.8701 3.73004 13.0801 3.51003 13.0801 3.22003C13.0801 2.93003 12.8501 2.72003 12.5801 2.72003Z" fill="#D3AA74"/>
<path d="M9.12009 2.72003C8.84009 2.72003 8.61011 2.95003 8.61011 3.22003C8.61011 3.49003 8.83009 3.73004 9.12009 3.73004C9.41009 3.73004 9.62009 3.51003 9.62009 3.22003C9.62009 2.93003 9.39009 2.72003 9.12009 2.72003Z" fill="#D3AA74"/>
<path d="M5.65991 2.72003C5.37991 2.72003 5.15991 2.95003 5.15991 3.22003C5.15991 3.49003 5.37991 3.73004 5.65991 3.73004C5.93991 3.73004 6.16992 3.51003 6.16992 3.22003C6.16992 2.93003 5.93991 2.72003 5.65991 2.72003Z" fill="#D3AA74"/>
<path d="M17.29 11.07C17.86 10.83 18.24 10.26 18.24 9.62V5.14001C18.24 4.47001 17.81 3.87001 17.19 3.64001V2.28003C17.19 1.02003 15.97 0 14.48 0H3.76001C2.26001 0 1.05002 1.02003 1.05002 2.28003V3.64001C0.430018 3.87001 0 4.48001 0 5.14001V9.62C0 10.26 0.380012 10.83 0.950012 11.07L0.0299988 14.15L0.0100098 16.17C0.0100098 16.48 0.260007 16.73 0.570007 16.73H1.39999V17.11C1.39999 17.76 1.92001 18.28 2.57001 18.28H2.83002C3.47002 18.28 4 17.75 4 17.11V16.73H14.31V17.11C14.31 17.76 14.83 18.28 15.48 18.28H15.74C16.38 18.28 16.91 17.75 16.91 17.11V16.73H17.68C17.99 16.73 18.24 16.48 18.24 16.17V14.27L17.29 11.06V11.07ZM15.73 17.16H15.47C15.47 17.16 15.42 17.13 15.42 17.11V16.73H15.77V17.11C15.77 17.11 15.75 17.16 15.73 17.16ZM2.87 16.73V17.11C2.87 17.11 2.85002 17.16 2.83002 17.16H2.57001C2.57001 17.16 2.53 17.14 2.53 17.11V16.73H2.88H2.87ZM17.11 14.87V15.61H1.12V14.87H17.11ZM17.11 5.14001V9.62C17.11 9.76 17.05 9.88003 16.95 9.97003L16.14 7.27002V5.14001C16.14 4.88001 16.36 4.66003 16.62 4.66003C16.75 4.66003 16.87 4.70999 16.97 4.79999C17.06 4.88999 17.11 5.01001 17.11 5.14001ZM1.32001 13.75L3.08002 7.91003H4.13C4.47001 8.21003 4.90002 8.38 5.36002 8.38H7.11002C7.56002 8.38 7.99002 8.21003 8.33002 7.91003H9.92999C10.27 8.21003 10.7 8.38 11.15 8.38H12.9C13.36 8.38 13.79 8.21003 14.13 7.91003H15.18L16.93 13.75H1.33002H1.32001ZM5.35001 5.60004H7.10001C7.62001 5.60004 8.05002 6.02999 8.05002 6.54999C8.05002 7.06999 7.62001 7.5 7.10001 7.5H5.35001C4.82001 7.5 4.39999 7.06999 4.39999 6.54999C4.39999 6.02999 4.83001 5.60004 5.35001 5.60004ZM12.89 7.5H11.14C10.62 7.5 10.19 7.06999 10.19 6.54999C10.19 6.02999 10.62 5.60004 11.14 5.60004H12.89C13.42 5.60004 13.84 6.02999 13.84 6.54999C13.84 7.06999 13.41 7.5 12.89 7.5ZM16.07 3.64001C15.45 3.87001 15.02 4.47001 15.02 5.14001V6.79004H14.71C14.72 6.71004 14.73 6.62999 14.73 6.54999C14.73 5.53999 13.91 4.72003 12.9 4.72003H11.15C10.14 4.72003 9.32001 5.53999 9.32001 6.54999C9.32001 6.62999 9.32 6.71004 9.34 6.79004H8.92999C8.93999 6.71004 8.95001 6.62999 8.95001 6.54999C8.95001 5.53999 8.13 4.72003 7.12 4.72003H5.37C4.35999 4.72003 3.54001 5.53999 3.54001 6.54999C3.54001 6.62999 3.54 6.71004 3.56 6.79004H3.25V5.14001C3.25 4.47001 2.83001 3.87001 2.20001 3.64001V2.28003C2.20001 1.65003 2.93001 1.12 3.79001 1.12H14.51C15.37 1.12 16.1 1.65003 16.1 2.28003V3.64001H16.07ZM2.09 7.27002L1.28 9.97003C1.18 9.88003 1.12 9.76 1.12 9.62V5.14001C1.12 4.88001 1.34002 4.66003 1.61002 4.66003C1.74002 4.66003 1.86001 4.70999 1.95001 4.79999C2.04001 4.88999 2.09 5.02001 2.09 5.14001V7.27002Z" fill="#D3AA74"/>
</svg>
