<svg width="19" height="19" viewBox="0 0 19 19" fill="none" xmlns="http://www.w3.org/2000/svg">
<path d="M11.6801 13.16H12.14C12.35 13.16 12.5201 12.99 12.5201 12.78C12.5201 12.57 12.35 12.4 12.14 12.4H11.6801C11.4701 12.4 11.3 12.57 11.3 12.78C11.3 12.99 11.4701 13.16 11.6801 13.16Z" fill="#D3AA74"/>
<path d="M11.6801 16.09H12.14C12.35 16.09 12.5201 15.92 12.5201 15.71C12.5201 15.5 12.35 15.33 12.14 15.33H11.6801C11.4701 15.33 11.3 15.5 11.3 15.71C11.3 15.92 11.4701 16.09 11.6801 16.09Z" fill="#D3AA74"/>
<path d="M11.6801 10.07H12.14C12.35 10.07 12.5201 9.9 12.5201 9.69C12.5201 9.48 12.35 9.31 12.14 9.31H11.6801C11.4701 9.31 11.3 9.48 11.3 9.69C11.3 9.9 11.4701 10.07 11.6801 10.07Z" fill="#D3AA74"/>
<path d="M17.9 6.09003H14.06V4.81C14.06 4.6 13.89 4.42999 13.67 4.42999H13.57V1.31C13.57 0.589998 12.97 0 12.24 0H6.01999C5.28999 0 4.69 0.589998 4.69 1.31V4.42999H4.59C4.38 4.42999 4.20999 4.6 4.20999 4.81V6.09003H0.380005C0.170005 6.09003 0 6.26003 0 6.47003V8.13C0 8.34 0.170005 8.51001 0.380005 8.51001H1.29001V17.89C1.29001 18.1 1.45999 18.27 1.67999 18.27H3.25C3.46 18.27 3.63 18.1 3.63 17.89V8.51001H8.39999V17.07C8.39999 17.28 8.57001 17.45 8.79001 17.45H14.64V17.89C14.64 18.1 14.81 18.27 15.02 18.27H16.59C16.8 18.27 16.97 18.1 16.97 17.89V8.51001H17.88C18.09 8.51001 18.26 8.34 18.26 8.13V6.47003C18.26 6.26003 18.09 6.09003 17.88 6.09003H17.9ZM15.42 17.51V8.52002H16.22V17.51H15.42ZM14.65 14.71V16.69H9.17999V14.71H14.65ZM14.65 11.61V13.96H9.17999V11.61H14.65ZM14.65 8.52002V10.86H9.17999V8.52002H14.65ZM2.87 8.52002V17.51H2.07001V8.52002H2.87ZM5.47 4.44V1.32001C5.47 1.02001 5.72 0.77002 6.03 0.77002H12.25C12.56 0.77002 12.82 1.02001 12.82 1.32001V4.44H5.47ZM4.98999 6.09003V5.19H13.3V6.09003H4.98999ZM17.51 6.84998V7.75H0.769989V6.84998H17.51Z" fill="#D3AA74"/>
</svg>
