<svg width="18" height="18" viewBox="0 0 18 18" fill="none" xmlns="http://www.w3.org/2000/svg">
<path d="M17 0H0.5C0.22 0 0 0.22 0 0.5V16.25C0 16.53 0.22 16.75 0.5 16.75H2.60999V17C2.60999 17.28 2.82999 17.5 3.10999 17.5C3.38999 17.5 3.60999 17.28 3.60999 17V16.75H14.1V17C14.1 17.28 14.32 17.5 14.6 17.5C14.88 17.5 15.1 17.28 15.1 17V16.75H17C17.28 16.75 17.5 16.53 17.5 16.25V0.5C17.5 0.22 17.28 0 17 0ZM16.5 15.75H1V1H16.5V15.75Z" fill="#D3AA74"/>
<path d="M11 3.26001H11.77C12.05 3.26001 12.27 3.04001 12.27 2.76001C12.27 2.48001 12.05 2.26001 11.77 2.26001H11C10.72 2.26001 10.5 2.48001 10.5 2.76001C10.5 3.04001 10.72 3.26001 11 3.26001Z" fill="#D3AA74"/>
<path d="M13.54 3.26001H14.3C14.58 3.26001 14.8 3.04001 14.8 2.76001C14.8 2.48001 14.58 2.26001 14.3 2.26001H13.54C13.26 2.26001 13.04 2.48001 13.04 2.76001C13.04 3.04001 13.26 3.26001 13.54 3.26001Z" fill="#D3AA74"/>
<path d="M8.75 4.03003C5.85 4.03003 3.48999 6.27002 3.48999 9.02002C3.48999 11.77 5.85 14.01 8.75 14.01C11.65 14.01 14.01 11.77 14.01 9.02002C14.01 6.27002 11.64 4.03003 8.75 4.03003ZM12.87 9.02002C12.87 11.17 11.02 12.92 8.75 12.92C6.48 12.92 4.62997 11.17 4.62997 9.02002C4.62997 6.87002 6.48 5.12 8.75 5.12C11.02 5.12 12.87 6.87002 12.87 9.02002Z" fill="#D3AA74"/>
<path d="M8.31989 12.25C8.55989 12.25 8.74991 12.07 8.74991 11.85C8.74991 11.52 8.87989 11.38 9.06989 11.17C9.30989 10.91 9.59988 10.59 9.59988 9.96002C9.59988 9.33002 9.29989 9.01 9.06989 8.75C8.87989 8.54 8.74991 8.39001 8.74991 8.07001C8.74991 7.75001 8.87989 7.60001 9.06989 7.39001C9.30989 7.13001 9.59988 6.80999 9.59988 6.17999C9.59988 5.95999 9.4099 5.78003 9.1799 5.78003C8.9499 5.78003 8.74991 5.95999 8.74991 6.17999C8.74991 6.50999 8.6199 6.65005 8.4299 6.86005C8.1899 7.12005 7.8999 7.45001 7.8999 8.07001C7.8999 8.69001 8.19988 9.02004 8.43988 9.29004C8.61988 9.49004 8.74991 9.64002 8.74991 9.96002C8.74991 10.28 8.6199 10.43 8.4299 10.64C8.1899 10.9 7.8999 11.22 7.8999 11.85C7.8999 12.07 8.08989 12.25 8.31989 12.25Z" fill="#D3AA74"/>
<path d="M10.77 11.44C10.9 11.44 11.02 11.39 11.1 11.3L11.23 11.16C11.46 10.9 11.74 10.58 11.74 9.96002C11.74 9.34002 11.45 9.02 11.21 8.75C11.02 8.54 10.88 8.39001 10.88 8.07001C10.88 7.75001 11 7.61001 11.21 7.39001L11.33 7.25C11.4 7.17 11.43 7.06001 11.42 6.95001C11.41 6.84001 11.35 6.75 11.26 6.69C11.18 6.63 11.09 6.60004 10.99 6.60004C10.86 6.60004 10.74 6.65 10.66 6.75L10.55 6.87C10.31 7.13 10.02 7.45002 10.02 8.08002C10.02 8.71002 10.32 9.03004 10.56 9.29004C10.75 9.50004 10.87 9.64002 10.87 9.96002C10.87 10.28 10.74 10.43 10.55 10.64L10.41 10.79C10.35 10.87 10.32 10.98 10.33 11.09C10.34 11.19 10.4 11.28 10.48 11.35C10.56 11.41 10.65 11.44 10.75 11.44H10.77Z" fill="#D3AA74"/>
<path d="M6.50003 11.44C6.63003 11.44 6.75002 11.39 6.83002 11.29L6.93002 11.17C7.17002 10.91 7.46002 10.58 7.46002 9.96002C7.46002 9.34002 7.16002 9.02 6.93002 8.75C6.74002 8.54 6.61002 8.39001 6.61002 8.07001C6.61002 7.75001 6.74002 7.60001 6.93002 7.39001L7.07001 7.23999C7.13001 7.15999 7.16002 7.05 7.15002 6.94C7.14002 6.84 7.08003 6.74999 7.00003 6.67999C6.92003 6.61999 6.83001 6.59003 6.73001 6.59003C6.60001 6.59003 6.48 6.64004 6.41 6.73004L6.28003 6.87C6.05003 7.13 5.77002 7.45 5.77002 8.06C5.77002 8.67 6.06002 9.00002 6.30002 9.27002C6.50002 9.48002 6.62003 9.62001 6.62003 9.95001C6.62003 10.28 6.50001 10.41 6.29001 10.63L6.17001 10.77C6.10001 10.86 6.07002 10.96 6.08002 11.07C6.09002 11.18 6.15002 11.27 6.24002 11.33C6.32002 11.39 6.41001 11.42 6.51001 11.42L6.50003 11.44Z" fill="#D3AA74"/>
</svg>
