<svg width="10" height="19" viewBox="0 0 10 19" fill="none" xmlns="http://www.w3.org/2000/svg">
<path d="M9.82 5.23999C9.82 4.66999 9.54 4.15998 9.07 3.84998L6.8 2.38998C6.99 2.18998 7.1 1.91998 7.1 1.63998V1.09998C7.1 0.489976 6.6 0 6 0H3.82C3.21 0 2.72 0.499976 2.72 1.09998V1.63998C2.72 1.91998 2.83 2.18998 3.02 2.38998L0.75 3.84998C0.28 4.15998 0 4.67999 0 5.23999V8.19C0 8.59 0.15 8.98 0.41 9.28C0.14 9.58 0 9.96 0 10.37V11.19C0 11.59 0.15 11.98 0.41 12.28C0.14 12.58 0 12.96 0 13.37V16.92C0 17.81 0.719999 18.55 1.62 18.57H8.22C9.11 18.55 9.84 17.81 9.84 16.92V13.37C9.84 12.96 9.69 12.58 9.43 12.28C9.7 11.98 9.84 11.6 9.84 11.19V10.37C9.84 9.96 9.69 9.58 9.43 9.28C9.7 8.98 9.84 8.6 9.84 8.19V5.23999H9.82ZM1.09 13.37C1.09 13.07 1.33 12.83 1.62 12.83H4.35C4.66 12.83 4.91 12.58 4.91 12.28C4.91 11.98 4.66 11.72 4.35 11.72H1.62C1.33 11.72 1.09 11.48 1.09 11.18V10.36C1.09 10.06 1.33 9.81998 1.62 9.81998H2.98C3.29 9.81998 3.54 9.56998 3.54 9.25998C3.54 8.94998 3.29 8.69998 2.98 8.69998H1.62C1.33 8.69998 1.09 8.45998 1.09 8.16998V5.22C1.09 5.04 1.18 4.86999 1.34 4.76999L4.39 2.81C4.47 2.75 4.57 2.72998 4.68 2.72998H5.13C5.24 2.72998 5.34 2.76 5.42 2.81L8.47 4.76999C8.62 4.86999 8.71 5.03 8.71 5.22V6.91H8.55C8.24 6.91 7.99 7.16 7.99 7.47C7.99 7.78 8.24 8.03 8.55 8.03H8.71V8.16998C8.71 8.45998 8.47 8.69998 8.18 8.69998H6.82C6.51 8.69998 6.26 8.94998 6.26 9.25998C6.26 9.56998 6.51 9.81998 6.82 9.81998H8.18C8.47 9.81998 8.71 10.06 8.71 10.36V11.18C8.71 11.48 8.47 11.72 8.18 11.72H7.63C7.32 11.72 7.07 11.97 7.07 12.28C7.07 12.59 7.32 12.83 7.63 12.83H8.18C8.47 12.83 8.71 13.07 8.71 13.37V16.92C8.71 17.21 8.47 17.45 8.18 17.45H1.63C1.34 17.45 1.1 17.21 1.1 16.92V13.37H1.09ZM3.82 1.63998V1.10999H5.98V1.63H3.81L3.82 1.63998Z" fill="#D3AA74"/>
</svg>
