<svg width="20" height="23" viewBox="0 0 20 23" fill="none" xmlns="http://www.w3.org/2000/svg">
<path d="M9.62999 2C8.86999 2 8.23999 2.62 8.23999 3.38C8.23999 4.14 8.85999 4.76999 9.62999 4.76999C10.4 4.76999 11.02 4.15 11.02 3.38C11.02 2.61 10.4 2 9.62999 2ZM10.2 3.38C10.2 3.7 9.94999 3.95001 9.62999 3.95001C9.30999 3.95001 9.05999 3.7 9.05999 3.38C9.05999 3.06 9.30999 2.81 9.62999 2.81C9.94999 2.81 10.2 3.06 10.2 3.38Z" fill="#D3AA74"/>
<path d="M13.18 2C12.41 2 11.79 2.62 11.79 3.38C11.79 4.14 12.41 4.76999 13.18 4.76999C13.95 4.76999 14.56 4.15 14.56 3.38C14.56 2.61 13.94 2 13.18 2ZM13.74 3.38C13.74 3.69 13.49 3.94 13.18 3.94C12.87 3.94 12.61 3.69 12.61 3.38C12.61 3.07 12.87 2.82001 13.18 2.82001C13.49 2.82001 13.74 3.07 13.74 3.38Z" fill="#D3AA74"/>
<path d="M18.26 6.75C18.53 6.75 18.79 6.64001 18.98 6.45001C19.17 6.26001 19.28 6.00001 19.28 5.73001V1.64999C19.28 0.739994 18.54 0 17.62 0H1.65C0.790002 0 0.06 0.670009 0 1.54001V5.83002C0.02 6.07002 0.130001 6.29001 0.290001 6.45001C0.430001 6.59001 0.610005 6.69001 0.810005 6.73001V16.83C0.610005 16.86 0.430001 16.96 0.290001 17.1C0.120001 17.26 0.02 17.47 0 17.71V21.17C0.02 21.4 0.120001 21.61 0.290001 21.77C0.470001 21.96 0.720006 22.06 0.990005 22.06H18.29C18.56 22.06 18.81 21.96 18.99 21.77C19.18 21.59 19.28 21.34 19.28 21.07V17.79C19.28 17.53 19.17 17.27 18.99 17.09C18.81 16.9 18.56 16.79 18.29 16.79H18.16V6.73001H18.26V6.75ZM8.99001 8.42999V6.75H10.27V8.42999H8.99001ZM13.03 12.14V13.27C13.03 15.22 11.44 16.81 9.48 16.81C7.52 16.81 5.93 15.22 5.93 13.27V12.14H13.03ZM14.07 13.28V12.99H14.62C14.81 12.99 14.99 13.07 15.13 13.2C15.27 13.34 15.34 13.51 15.34 13.71V14.04C15.34 14.23 15.26 14.42 15.13 14.55C14.99 14.69 14.81 14.76 14.62 14.76H13.82C13.98 14.28 14.07 13.79 14.07 13.29V13.28ZM13.32 15.78H14.63C15.1 15.78 15.55 15.59 15.87 15.27C16.2 14.94 16.38 14.5 16.38 14.03V13.7C16.38 13.24 16.19 12.79 15.87 12.46C15.54 12.13 15.09 11.95 14.63 11.95H14.08V11.62C14.08 11.34 13.85 11.11 13.56 11.11H5.42001C5.13001 11.11 4.9 11.34 4.9 11.62V13.27C4.9 14.65 5.52 15.95 6.58 16.81H1.84V6.75H7.95V8.95001C7.95 9.24001 8.18 9.47 8.47 9.47H10.79C11.08 9.47 11.31 9.24001 11.31 8.95001V6.75H17.12V16.81H12.38C12.74 16.51 13.06 16.16 13.31 15.77L13.32 15.78ZM1.03 1.66C1.03 1.32 1.31 1.04001 1.65 1.04001H17.62C17.96 1.04001 18.24 1.32 18.24 1.66V5.70999H1.04V1.66H1.03ZM1.03 21.04V17.85H18.24V21.04H1.03Z" fill="#D3AA74"/>
<path d="M6.08995 2C5.31995 2 4.69995 2.62 4.69995 3.38C4.69995 4.14 5.31995 4.76999 6.08995 4.76999C6.85995 4.76999 7.46995 4.15 7.46995 3.38C7.46995 2.61 6.84995 2 6.08995 2ZM6.65995 3.38C6.65995 3.69 6.40995 3.95001 6.08995 3.95001C5.76995 3.95001 5.51995 3.7 5.51995 3.38C5.51995 3.06 5.76995 2.81 6.08995 2.81C6.40995 2.81 6.65995 3.06 6.65995 3.38Z" fill="#D3AA74"/>
</svg>
