<svg width="8" height="14" viewBox="0 0 8 14" fill="none" xmlns="http://www.w3.org/2000/svg">
<path d="M7.36888 13.08C7.37888 12.85 7.14888 12.5 6.86888 12.43L5.32888 12.04C4.92888 11.94 4.67888 11.6 4.67888 11.16V8.77002C4.67888 8.24002 4.92888 7.83002 5.38888 7.61002C6.94888 6.89002 7.84888 5.29002 7.67888 3.55002C7.57888 2.54002 7.40888 1.57 7.13888 0.5C7.07888 0.25 6.74888 0 6.47888 0H1.16888C0.948879 0 0.618881 0.260001 0.568881 0.470001C0.248881 1.73 0.0788757 2.73 0.00887566 3.72C-0.101124 5.38 0.81888 6.92 2.34888 7.63C2.65888 7.78 2.99888 8.13001 2.99888 8.51001V11.4C2.99888 11.67 2.67888 11.96 2.37888 12.04L0.808879 12.44C0.528879 12.51 0.268878 12.91 0.338877 13.18C0.338877 13.2 0.348882 13.22 0.358882 13.24L0.388881 13.32C0.508881 13.53 0.768881 13.71 0.998881 13.71H6.72888C6.98888 13.71 7.20888 13.53 7.30888 13.33L7.33888 13.25C7.35888 13.2 7.36888 13.15 7.36888 13.1V13.08ZM7.20888 2.90002C7.20888 2.90002 7.21888 2.99001 7.22888 3.04001L7.19888 2.91H7.21887L7.20888 2.90002ZM0.468875 3.09003C0.468875 3.09003 0.468875 3.05 0.468875 3.03L0.45888 3.09003H0.468875ZM1.28887 0.76001H6.41888C6.57888 1.36001 6.69888 1.93001 6.80888 2.57001C5.79888 2.73001 4.82888 2.66003 3.81888 2.59003C3.24888 2.55003 2.66888 2.51001 2.06888 2.51001C1.69888 2.51001 1.30888 2.53001 0.918879 2.57001C1.01888 1.97001 1.14888 1.39001 1.29888 0.76001H1.28887ZM2.02888 12.91C2.22888 12.87 2.43887 12.83 2.64887 12.75C3.34888 12.48 3.76888 11.95 3.76888 11.32V8.68002C3.76888 7.90002 3.34888 7.25002 2.59888 6.90002C1.26888 6.27002 0.538881 4.80002 0.818881 3.36002C1.89888 3.21002 2.82888 3.27001 3.81888 3.35001C4.77888 3.42001 5.76888 3.49003 6.88888 3.34003C7.18888 4.85003 6.41888 6.33001 4.97888 6.98001C4.36888 7.26001 3.93888 7.92003 3.94888 8.59003V11.41C3.94888 11.98 4.37888 12.49 5.07888 12.76C5.27888 12.84 5.47888 12.88 5.66888 12.92H2.04888L2.02888 12.91Z" fill="#D3AA74"/>
</svg>
