<svg width="19" height="19" viewBox="0 0 19 19" fill="none" xmlns="http://www.w3.org/2000/svg">
<path d="M11.6801 13.16H12.1401C12.3501 13.16 12.5201 12.99 12.5201 12.78C12.5201 12.57 12.3501 12.4 12.1401 12.4H11.6801C11.4701 12.4 11.3 12.57 11.3 12.78C11.3 12.99 11.4701 13.16 11.6801 13.16Z" fill="#D3AA74"/>
<path d="M11.6801 16.08H12.1401C12.3501 16.08 12.5201 15.91 12.5201 15.7C12.5201 15.49 12.3501 15.3199 12.1401 15.3199H11.6801C11.4701 15.3199 11.3 15.49 11.3 15.7C11.3 15.91 11.4701 16.08 11.6801 16.08Z" fill="#D3AA74"/>
<path d="M11.6801 10.07H12.1401C12.3501 10.07 12.5201 9.9 12.5201 9.69C12.5201 9.48 12.3501 9.31 12.1401 9.31H11.6801C11.4701 9.31 11.3 9.48 11.3 9.69C11.3 9.9 11.4701 10.07 11.6801 10.07Z" fill="#D3AA74"/>
<path d="M17.9 6.09H14.06V4.81C14.06 4.6 13.89 4.42999 13.67 4.42999H13.57V1.31C13.57 0.589998 12.97 0 12.24 0H6.01999C5.28999 0 4.68999 0.589998 4.68999 1.31V4.42999H4.59C4.38 4.42999 4.20999 4.6 4.20999 4.81V6.09H0.37999C0.16999 6.09 0 6.26 0 6.47V8.13C0 8.34 0.16999 8.50998 0.37999 8.50998H1.28999V17.89C1.28999 18.1 1.45999 18.27 1.67999 18.27H3.25C3.46 18.27 3.62999 18.1 3.62999 17.89V8.50998H8.39999V17.07C8.39999 17.28 8.56999 17.45 8.78999 17.45H14.64V17.89C14.64 18.1 14.81 18.27 15.02 18.27H16.59C16.8 18.27 16.97 18.1 16.97 17.89V8.50998H17.88C18.09 8.50998 18.26 8.34 18.26 8.13V6.47C18.26 6.26 18.09 6.09 17.88 6.09H17.9ZM15.42 17.51V8.51999H16.22V17.51H15.42ZM14.65 14.71V16.69H9.17999V14.71H14.65ZM14.65 11.61V13.96H9.17999V11.61H14.65ZM14.65 8.50998V10.85H9.17999V8.50998H14.65ZM2.87 8.50998V17.5H2.06999V8.50998H2.87ZM5.46999 4.44V1.31998C5.46999 1.01998 5.72 0.769989 6.03 0.769989H12.25C12.56 0.769989 12.82 1.01998 12.82 1.31998V4.44H5.46999ZM4.98999 6.09V5.19H13.3V6.09H4.98999ZM17.51 6.84998V7.75H0.769989V6.84998H17.51Z" fill="#D3AA74"/>
</svg>
