<svg width="16" height="18" viewBox="0 0 16 18" fill="none" xmlns="http://www.w3.org/2000/svg">
<path d="M14.25 15.75H1.5C0.67 15.75 0 15.08 0 14.25V1.5C0 0.67 0.67 0 1.5 0H14.25C15.08 0 15.75 0.67 15.75 1.5V14.25C15.75 15.08 15.08 15.75 14.25 15.75ZM1.5 1C1.22 1 1 1.22 1 1.5V14.25C1 14.53 1.22 14.75 1.5 14.75H14.25C14.53 14.75 14.75 14.53 14.75 14.25V1.5C14.75 1.22 14.53 1 14.25 1H1.5Z" fill="#D3AA74"/>
<path d="M9.75 3.5H6C5.72 3.5 5.5 3.28 5.5 3C5.5 2.72 5.72 2.5 6 2.5H9.75C10.03 2.5 10.25 2.72 10.25 3C10.25 3.28 10.03 3.5 9.75 3.5Z" fill="#D3AA74"/>
<path d="M14.79 6.27997H0.789978C0.509978 6.27997 0.289978 6.05997 0.289978 5.77997C0.289978 5.49997 0.509978 5.27997 0.789978 5.27997H14.79C15.07 5.27997 15.29 5.49997 15.29 5.77997C15.29 6.05997 15.07 6.27997 14.79 6.27997Z" fill="#D3AA74"/>
<path d="M12.75 3.5H12C11.72 3.5 11.5 3.28 11.5 3C11.5 2.72 11.72 2.5 12 2.5H12.75C13.03 2.5 13.25 2.72 13.25 3C13.25 3.28 13.03 3.5 12.75 3.5Z" fill="#D3AA74"/>
<path d="M12.79 17.28C12.51 17.28 12.29 17.06 12.29 16.78V15.78C12.29 15.5 12.51 15.28 12.79 15.28C13.07 15.28 13.29 15.5 13.29 15.78V16.78C13.29 17.06 13.07 17.28 12.79 17.28Z" fill="#D3AA74"/>
<path d="M2.78998 17.28C2.50998 17.28 2.28998 17.06 2.28998 16.78V15.78C2.28998 15.5 2.50998 15.28 2.78998 15.28C3.06998 15.28 3.28998 15.5 3.28998 15.78V16.78C3.28998 17.06 3.06998 17.28 2.78998 17.28Z" fill="#D3AA74"/>
<path d="M10.5 12.5C8.98 12.5 7.75 11.27 7.75 9.75C7.75 8.23 8.98 7 10.5 7C12.02 7 13.25 8.23 13.25 9.75C13.25 11.27 12.02 12.5 10.5 12.5ZM10.5 8C9.54 8 8.75 8.79 8.75 9.75C8.75 10.71 9.54 11.5 10.5 11.5C11.46 11.5 12.25 10.71 12.25 9.75C12.25 8.79 11.46 8 10.5 8Z" fill="#D3AA74"/>
<path d="M5.03003 12.5C4.75003 12.5 4.53003 12.28 4.53003 12V9.44C4.53003 9.16 4.75003 8.94 5.03003 8.94C5.31003 8.94 5.53003 9.16 5.53003 9.44V12C5.53003 12.28 5.31003 12.5 5.03003 12.5Z" fill="#D3AA74"/>
<path d="M6.31 8.01996H3.75C3.47 8.01996 3.25 7.79996 3.25 7.51996C3.25 7.23996 3.47 7.01996 3.75 7.01996H6.31C6.59 7.01996 6.81 7.23996 6.81 7.51996C6.81 7.79996 6.59 8.01996 6.31 8.01996Z" fill="#D3AA74"/>
<path d="M6.31 12.5H3.75C3.47 12.5 3.25 12.28 3.25 12C3.25 11.72 3.47 11.5 3.75 11.5H6.31C6.59 11.5 6.81 11.72 6.81 12C6.81 12.28 6.59 12.5 6.31 12.5Z" fill="#D3AA74"/>
<path d="M5.03 9.94C4.07 9.94 3.29 9.18998 3.25 8.22998C3.25 8.20998 3.25 7.52 3.25 7.5C3.25 7.22 3.47 7 3.75 7C4.03 7 4.25 7.22 4.25 7.5V8.20001C4.27 8.61001 4.61 8.94 5.03 8.94C5.45 8.94 5.79 8.61 5.81 8.19V7.5C5.81 7.22 6.03 7 6.31 7C6.59 7 6.81 7.22 6.81 7.5C6.81 7.52 6.81 8.20997 6.81 8.21997C6.77 9.17997 5.99 9.94 5.03 9.94Z" fill="#D3AA74"/>
</svg>
