<svg width="13" height="13" viewBox="0 0 13 13" fill="none" xmlns="http://www.w3.org/2000/svg">
<path d="M6.28999 12.58C2.81999 12.58 0 9.76001 0 6.29001C0 2.82001 2.81999 0 6.28999 0C9.75999 0 12.58 2.82001 12.58 6.29001C12.58 9.76001 9.75999 12.58 6.28999 12.58ZM6.28999 1.01001C3.37999 1.01001 1 3.38002 1 6.30002C1 9.22002 3.36999 11.59 6.28999 11.59C9.20999 11.59 11.58 9.22002 11.58 6.30002C11.58 3.38002 9.20999 1.01001 6.28999 1.01001Z" fill="#D3AA74"/>
<g clip-path="url(#clip0_40000828_91132)">
<path d="M6.37999 9.75998C4.51999 9.75998 3 8.24001 3 6.38C3 4.52 4.51999 3 6.37999 3C8.23999 3 9.75999 4.52 9.75999 6.38C9.75999 8.24001 8.23999 9.75998 6.37999 9.75998ZM6.37999 4C5.06999 4 4 5.07 4 6.38C4 7.69 5.06999 8.75998 6.37999 8.75998C7.68999 8.75998 8.75999 7.69 8.75999 6.38C8.75999 5.07 7.68999 4 6.37999 4Z" fill="#D3AA74"/>
</g>
<defs>
<clipPath id="clip0_40000828_91132">
<rect width="7" height="7" fill="white" transform="translate(3 3)"/>
</clipPath>
</defs>
</svg>
