<svg width="17" height="21" viewBox="0 0 17 21" fill="none" xmlns="http://www.w3.org/2000/svg">
<path d="M4.25 4C3.97 4 3.75 3.78 3.75 3.5V1.25C3.75 0.97 3.97 0.75 4.25 0.75C4.53 0.75 4.75 0.97 4.75 1.25V3.5C4.75 3.78 4.53 4 4.25 4Z" fill="#D3AA74"/>
<path d="M16.25 20.5H0.5C0.22 20.5 0 20.28 0 20V11C0 10.72 0.22 10.5 0.5 10.5H16.25C16.53 10.5 16.75 10.72 16.75 11V20C16.75 20.28 16.53 20.5 16.25 20.5ZM1 19.5H15.75V11.5H1V19.5Z" fill="#D3AA74"/>
<path d="M8 4.75H0.5C0.22 4.75 0 4.53 0 4.25V0.5C0 0.22 0.22 0 0.5 0H8C8.28 0 8.5 0.22 8.5 0.5V4.25C8.5 4.53 8.28 4.75 8 4.75ZM1 3.75H7.5V1H1V3.75Z" fill="#D3AA74"/>
<path d="M16.25 11.5H0.5C0.22 11.5 0 11.28 0 11V8.75C0 8.47 0.22 8.25 0.5 8.25H16.25C16.53 8.25 16.75 8.47 16.75 8.75V11C16.75 11.28 16.53 11.5 16.25 11.5ZM1 10.5H15.75V9.25H1V10.5Z" fill="#D3AA74"/>
<path d="M8 20.5C7.72 20.5 7.5 20.28 7.5 20V11C7.5 10.72 7.72 10.5 8 10.5C8.28 10.5 8.5 10.72 8.5 11V20C8.5 20.28 8.28 20.5 8 20.5Z" fill="#D3AA74"/>
<path d="M15.5 16.75H8C7.72 16.75 7.5 16.53 7.5 16.25C7.5 15.97 7.72 15.75 8 15.75H15.5C15.78 15.75 16 15.97 16 16.25C16 16.53 15.78 16.75 15.5 16.75Z" fill="#D3AA74"/>
<path d="M12.5 14.5H11.75C11.47 14.5 11.25 14.28 11.25 14C11.25 13.72 11.47 13.5 11.75 13.5H12.5C12.78 13.5 13 13.72 13 14C13 14.28 12.78 14.5 12.5 14.5Z" fill="#D3AA74"/>
<path d="M5.75 16C5.47 16 5.25 15.78 5.25 15.5V14.75C5.25 14.47 5.47 14.25 5.75 14.25C6.03 14.25 6.25 14.47 6.25 14.75V15.5C6.25 15.78 6.03 16 5.75 16Z" fill="#D3AA74"/>
<path d="M14.75 8.87C14.47 8.87 14.25 8.65 14.25 8.37V4.98999C14.25 4.88999 14.22 3.98999 13.25 3.98999C12.28 3.98999 12.25 4.88999 12.25 4.98999C12.25 5.26999 12.03 5.48999 11.75 5.48999C11.47 5.48999 11.25 5.26999 11.25 4.98999C11.25 4.18999 11.78 2.98999 13.25 2.98999C14.72 2.98999 15.25 4.18999 15.25 4.98999V8.37C15.25 8.65 15.03 8.87 14.75 8.87Z" fill="#D3AA74"/>
</svg>
