<svg width="20" height="20" viewBox="0 0 20 20" fill="none" xmlns="http://www.w3.org/2000/svg">
<path d="M10.7031 0.824674C10.9115 0.694465 10.9722 0.421028 10.8464 0.212694C10.7161 2.09676e-05 10.4427 -0.0607429 10.23 0.0651252C9.63976 0.434049 9.40104 0.829014 9.36632 1.21096C9.34028 1.51044 9.44878 1.73613 9.51389 1.87068L9.51823 1.87936C9.58767 2.01825 9.61372 2.08335 9.61806 2.1745C9.6224 2.36547 9.50087 2.56947 9.31858 2.7561C9.14497 2.92971 9.15365 3.21183 9.32726 3.38544C9.50521 3.55471 9.78299 3.55037 9.9566 3.37242C10.178 3.14672 10.5252 2.71269 10.5078 2.14412V2.13544C10.4948 1.85332 10.3906 1.64499 10.3299 1.51478L10.3168 1.49308C10.2517 1.35853 10.2474 1.32815 10.2517 1.28908C10.2517 1.26738 10.2691 1.08943 10.7031 0.824674Z" fill="#D3AA74"/>
<path d="M9.26217 0.260459C9.40974 0.455772 9.37068 0.733549 9.17537 0.881119C8.87589 1.11115 8.81946 1.26306 8.81946 1.31515C8.81946 1.34119 8.82814 1.36723 8.92363 1.49744L8.93665 1.5148C9.0278 1.64067 9.18405 1.85334 9.21877 2.1615C9.27085 2.61289 9.0495 3.04692 8.63717 3.44188C8.45922 3.61549 8.1771 3.60681 8.00783 3.4332C7.83856 3.25525 7.8429 2.97313 8.01651 2.80386C8.32901 2.50438 8.34203 2.33077 8.33769 2.26133C8.32901 2.2049 8.30731 2.1615 8.20748 2.02261L8.19446 2.00959C8.10766 1.88372 7.94273 1.66237 7.92971 1.34119V1.33685C7.92103 0.820355 8.30731 0.429731 8.64151 0.173654C8.83682 0.0260845 9.1146 0.065147 9.26217 0.260459Z" fill="#D3AA74"/>
<path d="M13.5547 15.7031C13.3073 15.7031 13.1077 15.9028 13.1077 16.1502C13.1077 16.3932 13.3073 16.5929 13.5547 16.5929H14.7396C14.987 16.5929 15.1823 16.3932 15.1823 16.1502C15.1823 15.9028 14.987 15.7031 14.7396 15.7031H13.5547Z" fill="#D3AA74"/>
<path d="M13.1077 12.8907C13.1077 12.6433 13.3073 12.4436 13.5547 12.4436H14.7396C14.987 12.4436 15.1823 12.6433 15.1823 12.8907C15.1823 13.1337 14.987 13.3334 14.7396 13.3334H13.5547C13.3073 13.3334 13.1077 13.1337 13.1077 12.8907Z" fill="#D3AA74"/>
<path fill-rule="evenodd" clip-rule="evenodd" d="M10.7379 11.2587C10.7379 11.0156 10.9375 10.816 11.1849 10.816H17.1094C17.3568 10.816 17.5521 11.0156 17.5521 11.2587V17.7778C17.5521 18.0252 17.3568 18.2205 17.1094 18.2205H11.1849C10.9375 18.2205 10.7379 18.0252 10.7379 17.7778V11.2587ZM11.6276 14.9653V17.3351H16.6667V14.9653H11.6276ZM16.6667 14.0755H11.6276V11.7057H16.6667V14.0755Z" fill="#D3AA74"/>
<path d="M2.4436 11.2587C2.4436 11.0156 2.64326 10.816 2.88631 10.816H8.81513C9.05819 10.816 9.25784 11.0156 9.25784 11.2587C9.25784 11.5061 9.05819 11.7057 8.81513 11.7057H2.88631C2.64326 11.7057 2.4436 11.5061 2.4436 11.2587Z" fill="#D3AA74"/>
<path fill-rule="evenodd" clip-rule="evenodd" d="M2.88631 12.5912C2.64326 12.5912 2.4436 12.7908 2.4436 13.0382V17.7778C2.4436 18.0252 2.64326 18.2205 2.88631 18.2205H8.81513C9.05819 18.2205 9.25784 18.0252 9.25784 17.7778V13.0382C9.25784 12.7908 9.05819 12.5912 8.81513 12.5912H2.88631ZM3.33336 17.3351V13.4809H8.36808V17.3351H3.33336Z" fill="#D3AA74"/>
<path fill-rule="evenodd" clip-rule="evenodd" d="M6.88803 4.14933V4.6962C7.0356 4.79169 7.17449 4.90887 7.30035 5.03474C7.3047 5.0304 7.30903 5.02606 7.31337 5.02172L7.90799 4.4271C8.0816 4.25349 8.36372 4.25349 8.53733 4.4271C8.7066 4.60071 8.7066 4.88283 8.53733 5.05644L7.94272 5.64672C7.89931 5.69012 7.85157 5.72051 7.79949 5.74221C7.97744 6.10245 8.07292 6.5061 8.07292 6.93144V7.11374C8.07292 7.16148 8.06424 7.21356 8.04688 7.2613H19.4792C19.7266 7.2613 19.9262 7.46096 19.9262 7.70401V19.5573C19.9262 19.8004 19.7266 20 19.4792 20H0.5165C0.273445 20 0.0737915 19.8004 0.0737915 19.5573V7.70401C0.0737915 7.46096 0.273445 7.2613 0.5165 7.2613H3.0599C3.04688 7.21356 3.03386 7.16148 3.03386 7.11374V6.93144C3.03386 6.00262 3.50261 5.16495 4.2231 4.6962V4.14933C4.2231 3.57641 4.68751 3.112 5.26042 3.112H5.8507C6.42362 3.112 6.88803 3.57641 6.88803 4.14933ZM5.10851 4.14933C5.10851 4.06686 5.17796 4.00176 5.26042 4.00176H5.8507C5.93317 4.00176 5.99827 4.06686 5.99827 4.14933V4.33596C5.85504 4.30992 5.70747 4.2969 5.55556 4.2969C5.40365 4.2969 5.25174 4.30992 5.10851 4.33596V4.14933ZM7.18317 7.11374C7.18317 7.16148 7.19185 7.21356 7.20921 7.2613H3.89758C3.91494 7.21356 3.92362 7.16148 3.92362 7.11374V6.93144C3.92362 5.9462 4.67883 5.18665 5.55556 5.18665C6.4323 5.18665 7.18317 5.9462 7.18317 6.93144V7.11374ZM0.963549 8.15106V9.05384H18.7934C18.8846 9.05384 18.967 9.07988 19.0365 9.12762V8.15106H0.963549ZM0.963549 19.1103V9.9436H18.7934C18.8846 9.9436 18.967 9.91755 19.0365 9.86981V19.1103H0.963549Z" fill="#D3AA74"/>
</svg>
