<svg width="18" height="15" viewBox="0 0 18 15" fill="none" xmlns="http://www.w3.org/2000/svg">
<path d="M17 12.84H0.5C0.22 12.84 0 12.62 0 12.34V0.5C0 0.22 0.22 0 0.5 0H17C17.28 0 17.5 0.22 17.5 0.5V12.34C17.5 12.62 17.28 12.84 17 12.84ZM1 11.84H16.5V1H1V11.84Z" fill="#D3AA74"/>
<path d="M2.59009 14.16C2.31009 14.16 2.09009 13.94 2.09009 13.66V12.35C2.09009 12.07 2.31009 11.85 2.59009 11.85C2.87009 11.85 3.09009 12.07 3.09009 12.35V13.66C3.09009 13.94 2.87009 14.16 2.59009 14.16Z" fill="#D3AA74"/>
<path d="M14.9199 14.16C14.6399 14.16 14.4199 13.94 14.4199 13.66V12.35C14.4199 12.07 14.6399 11.85 14.9199 11.85C15.1999 11.85 15.4199 12.07 15.4199 12.35V13.66C15.4199 13.94 15.1999 14.16 14.9199 14.16Z" fill="#D3AA74"/>
<path d="M11.0601 10.19C10.7801 10.19 10.5601 9.97003 10.5601 9.69003V3.16003C10.5601 2.88003 10.7801 2.66003 11.0601 2.66003C11.3401 2.66003 11.5601 2.88003 11.5601 3.16003V9.69003C11.5601 9.97003 11.3401 10.19 11.0601 10.19Z" fill="#D3AA74"/>
<path d="M14.05 4.62C13.77 4.62 13.55 4.4 13.55 4.12V3.94C13.55 3.66 13.77 3.44 14.05 3.44C14.33 3.44 14.55 3.66 14.55 3.94V4.12C14.55 4.4 14.33 4.62 14.05 4.62Z" fill="#D3AA74"/>
<path d="M14.05 9.39996C13.77 9.39996 13.55 9.17996 13.55 8.89996V8.71997C13.55 8.43997 13.77 8.21997 14.05 8.21997C14.33 8.21997 14.55 8.43997 14.55 8.71997V8.89996C14.55 9.17996 14.33 9.39996 14.05 9.39996Z" fill="#D3AA74"/>
</svg>
