<svg width="18" height="20" viewBox="0 0 18 20" fill="none" xmlns="http://www.w3.org/2000/svg">
<path d="M16.91 0H0.379974C0.169974 0 0 0.159995 0 0.369995V19.57C0 19.78 0.169974 19.94 0.379974 19.94H16.9C17.11 19.94 17.28 19.77 17.28 19.57V0.369995C17.28 0.169995 17.11 0 16.9 0H16.91ZM16.52 4.29999V19.2H0.75V4.29999H16.52ZM16.52 0.73999V3.56H0.75V0.73999H16.52Z" fill="#D3AA74"/>
<path d="M2.53992 17.64H14.9499C15.1599 17.64 15.3299 17.47 15.3299 17.27V5.96997C15.3299 5.76997 15.1599 5.59998 14.9499 5.59998H2.53992C2.32992 5.59998 2.15991 5.75997 2.15991 5.96997V17.27C2.15991 17.48 2.32992 17.64 2.53992 17.64ZM2.91992 16.9V6.34998H14.5699V16.9H2.91992Z" fill="#D3AA74"/>
<path d="M4.87 8.52002H12.4C13.03 8.52002 13.54 8.02002 13.54 7.40002C13.54 7.20002 13.37 7.03003 13.16 7.03003C12.95 7.03003 12.78 7.19002 12.78 7.40002C12.78 7.61002 12.61 7.78003 12.4 7.78003H4.87C4.66 7.78003 4.48999 7.61002 4.48999 7.40002C4.48999 7.19002 4.31999 7.03003 4.10999 7.03003C3.89999 7.03003 3.72998 7.19002 3.72998 7.40002C3.72998 8.02002 4.24 8.52002 4.87 8.52002Z" fill="#D3AA74"/>
<path d="M5.53992 2.52002H11.7399C11.9499 2.52002 12.1199 2.35002 12.1199 2.15002C12.1199 1.95002 11.9499 1.78003 11.7399 1.78003H5.53992C5.32992 1.78003 5.15991 1.94002 5.15991 2.15002C5.15991 2.36002 5.32992 2.52002 5.53992 2.52002Z" fill="#D3AA74"/>
<path d="M14.17 3.29001C14.81 3.29001 15.33 2.77999 15.33 2.14999C15.33 1.51999 14.81 1.01001 14.17 1.01001C13.53 1.01001 13.01 1.51999 13.01 2.14999C13.01 2.77999 13.53 3.29001 14.17 3.29001ZM13.76 2.14999C13.76 1.92999 13.94 1.75 14.17 1.75C14.4 1.75 14.57 1.92999 14.57 2.14999C14.57 2.36999 14.39 2.54001 14.17 2.54001C13.95 2.54001 13.76 2.35999 13.76 2.14999Z" fill="#D3AA74"/>
<path d="M3.31992 3.29001C3.95992 3.29001 4.47992 2.77999 4.47992 2.14999C4.47992 1.51999 3.95992 1.01001 3.31992 1.01001C2.67992 1.01001 2.15991 1.51999 2.15991 2.14999C2.15991 2.77999 2.67992 3.29001 3.31992 3.29001ZM3.31992 1.75C3.53992 1.75 3.71994 1.92999 3.71994 2.14999C3.71994 2.36999 3.53992 2.54001 3.31992 2.54001C3.09992 2.54001 2.90991 2.35999 2.90991 2.14999C2.90991 1.93999 3.08992 1.75 3.31992 1.75Z" fill="#D3AA74"/>
<path d="M13.2499 15.4H12.1899C12.3499 15.06 12.4299 14.69 12.4299 14.32V12.87C12.4299 12.66 12.2599 12.5 12.0499 12.5H5.22989C5.01989 12.5 4.84988 12.67 4.84988 12.87V14.32C4.84988 14.69 4.93988 15.07 5.09988 15.4H4.02991C3.81991 15.4 3.6499 15.57 3.6499 15.77C3.6499 15.97 3.81991 16.14 4.02991 16.14H13.2399C13.4499 16.14 13.6199 15.97 13.6199 15.77C13.6199 15.57 13.4499 15.4 13.2399 15.4H13.2499ZM11.6699 13.24V14.32C11.6699 14.7 11.5399 15.09 11.2999 15.4H5.9899C5.7499 15.08 5.6199 14.7 5.6199 14.32V13.24H11.6799H11.6699Z" fill="#D3AA74"/>
<path d="M6.83008 12.27C6.90008 12.34 7.00008 12.39 7.11008 12.39L7.35007 12.3H7.36008C7.66008 12.02 7.91008 11.4 7.39008 10.79C7.19008 10.56 7.27008 10.4 7.36008 10.31C7.51008 10.17 7.52009 9.94001 7.37009 9.79001C7.30009 9.72001 7.20007 9.67998 7.10007 9.66998C7.00007 9.66998 6.91009 9.70999 6.84009 9.76999C6.54009 10.04 6.29009 10.66 6.81009 11.27C7.01009 11.51 6.92009 11.67 6.84009 11.75C6.77009 11.82 6.7201 11.92 6.7201 12.02C6.7201 12.09 6.74008 12.15 6.77008 12.21H6.7501L6.82007 12.28L6.83008 12.27Z" fill="#D3AA74"/>
<path d="M8.26011 12.01C8.26011 12.11 8.29011 12.2 8.36011 12.27C8.43011 12.34 8.53011 12.39 8.64011 12.39L8.8801 12.3H8.89011C9.19011 12.02 9.44011 11.4 8.92011 10.79C8.71011 10.55 8.82011 10.38 8.89011 10.31C8.96011 10.24 9.00011 10.15 9.01011 10.06C9.01011 9.95998 8.9801 9.86 8.9101 9.79C8.7701 9.64 8.53012 9.63999 8.37012 9.77999C8.07012 10.05 7.82012 10.67 8.34012 11.28C8.53012 11.51 8.46012 11.67 8.37012 11.76C8.30012 11.83 8.25013 11.92 8.25013 12.02L8.26011 12.01Z" fill="#D3AA74"/>
<path d="M9.79993 12.01C9.79993 12.11 9.82994 12.2 9.89994 12.27C9.96994 12.34 10.0699 12.39 10.1799 12.39L10.4199 12.3H10.4299C10.7299 12.02 10.9799 11.4 10.4599 10.79C10.2599 10.55 10.3599 10.38 10.4399 10.31C10.5099 10.24 10.5499 10.15 10.5599 10.05C10.5599 9.94998 10.5299 9.85999 10.4599 9.77999C10.3199 9.62999 10.0799 9.62998 9.91993 9.76998C9.61993 10.04 9.36993 10.67 9.88993 11.27C10.0799 11.49 10.0099 11.66 9.91993 11.75C9.84993 11.82 9.79993 11.91 9.79993 12.01Z" fill="#D3AA74"/>
</svg>
