<svg width="20" height="14" viewBox="0 0 20 14" fill="none" xmlns="http://www.w3.org/2000/svg">
<path d="M15.9432 4.29001H2.80315C2.54315 4.29001 2.29315 4.15998 2.14315 3.94998C1.99315 3.73998 1.96317 3.47001 2.04317 3.23001C2.46317 2.08001 3.48316 1.31 4.56316 1.31H7.44317C7.43317 1.25 7.42315 1.19 7.42315 1.12C7.42315 0.499995 7.92317 0 8.54317 0H10.1732C10.7932 0 11.2932 0.499995 11.2932 1.12C11.2932 1.18 11.2932 1.24 11.2732 1.31H14.1532C15.2432 1.31 16.2632 2.08001 16.6832 3.23001C16.7732 3.47001 16.7332 3.73998 16.5832 3.94998C16.4332 4.15998 16.1831 4.29001 15.9231 4.29001H15.9432ZM3.00317 3.35999H15.7332C15.4132 2.68999 14.7932 2.23999 14.1632 2.23999H10.1732V1.29999C10.2732 1.29999 10.3631 1.21999 10.3631 1.10999C10.3631 0.999985 10.2832 0.929993 10.1732 0.929993H8.54317C8.44317 0.929993 8.36315 1.00999 8.36315 1.10999C8.36315 1.20999 8.44317 1.29999 8.54317 1.29999V2.23999H4.55315C3.83315 2.23999 3.26316 2.78999 2.99316 3.35999H3.00317Z" fill="#D3AA74"/>
<path d="M15.91 5.92999V11.71C15.91 12.43 15.31 13.01 14.56 13.01H4.76999C4.02999 13.01 3.41998 12.43 3.41998 11.71V5.95001L4.09 5.94H15.91M18.54 5H0.47998C0.20998 5 0 5.21 0 5.47C0 5.73 0.21998 5.94 0.47998 5.94H2.48999V11.7C2.48999 12.94 3.50999 13.94 4.76999 13.94H14.56C15.82 13.94 16.84 12.94 16.84 11.7V6.11002V5.94H18.53C18.8 5.94 19.01 5.73 19.01 5.47C19.01 5.21 18.79 5 18.53 5H18.54Z" fill="#D3AA74"/>
</svg>
