<svg width="14" height="22" viewBox="0 0 14 22" fill="none" xmlns="http://www.w3.org/2000/svg">
<path d="M10.7199 4.27002C10.4199 4.27002 10.1799 4.51 10.1799 4.81V5C10.1799 5.3 10.4099 5.54001 10.7199 5.54001C11.0299 5.54001 11.2599 5.3 11.2599 5V4.81C11.2599 4.51 11.0299 4.27002 10.7199 4.27002Z" fill="#D3AA74"/>
<path d="M10.7199 9.69C10.4199 9.69 10.1799 9.93001 10.1799 10.23V11.6C10.1799 11.9 10.4099 12.14 10.7199 12.14C11.0299 12.14 11.2599 11.9 11.2599 11.6V10.23C11.2599 9.93001 11.0299 9.69 10.7199 9.69Z" fill="#D3AA74"/>
<path d="M12.12 19.78H13.28C13.58 19.78 13.82 19.54 13.82 19.24V0.540009C13.82 0.240009 13.59 0 13.28 0H0.539978C0.239978 0 0 0.230009 0 0.540009V19.24C0 19.54 0.229978 19.78 0.539978 19.78H1.69998V20.55C1.69998 20.85 1.93999 21.09 2.23999 21.09C2.53999 21.09 2.76999 20.86 2.76999 20.55V19.78H11.05V20.55C11.05 20.85 11.28 21.09 11.59 21.09C11.9 21.09 12.13 20.86 12.13 20.55V19.78H12.12ZM1.06 1.08002H12.73V6.81H1.06V1.08002ZM1.09998 18.67V7.92999H12.69V18.67H1.09998Z" fill="#D3AA74"/>
</svg>
