<svg width="11" height="17" viewBox="0 0 11 17" fill="none" xmlns="http://www.w3.org/2000/svg">
<path d="M3.74169 0.0199585H3.69167C3.62167 0.0399585 3.53169 0.0999524 3.46169 0.169952C3.38169 0.249952 3.34168 0.349952 3.35168 0.419952C3.37168 0.989952 3.42169 1.58997 3.46169 2.15997C3.54169 3.15997 3.61167 4.16995 3.59167 5.13995C3.58167 5.69995 2.67167 5.98996 2.19167 5.98996H2.15169C2.09169 5.98996 2.03169 5.98997 1.96169 5.96997C1.51169 5.89997 0.801688 5.60996 0.801688 5.14996C0.801688 4.13996 0.861672 3.18996 0.941672 2.17996V2.03995C0.991672 1.51995 1.03167 0.989951 1.06167 0.449951C1.06167 0.279951 0.871683 0.0199487 0.671683 0.00994873C0.671683 0.00994873 0.581669 0.0199573 0.531669 0.0499573C0.451669 0.0899573 0.361667 0.169969 0.311667 0.249969C0.281667 0.289969 0.271689 0.329965 0.271689 0.369965L0.00166991 5.12997C-0.0183301 5.46997 0.141692 5.79998 0.461692 6.06998C0.771692 6.32998 1.23169 6.54997 1.80169 6.68997V16.17C1.81169 16.36 2.05167 16.56 2.22167 16.56H2.29168C2.29168 16.56 2.41168 16.49 2.48168 16.43C2.54168 16.38 2.61169 16.3 2.61169 16.2V6.68997C3.20169 6.54997 4.48168 6.10996 4.42168 5.11996L4.16167 0.429962C4.16167 0.269962 3.95169 0.0199585 3.74169 0.0199585Z" fill="#D3AA74"/>
<path d="M10.7318 0.299963V0.209967L10.6418 0.179968C10.2118 0.019968 9.79174 0.0599534 9.41174 0.289953C9.11174 0.469953 8.83174 0.759979 8.59174 1.15998C8.45174 1.38998 8.32174 1.64996 8.22174 1.91996C8.17174 2.04996 8.13174 2.17997 8.09174 2.30997C7.89174 3.00997 7.75174 3.71997 7.66174 4.48997C7.58174 5.20997 7.54174 5.92996 7.56174 6.69996C7.56174 6.81996 7.58176 6.94998 7.61176 7.06998C7.67176 7.28998 7.79175 7.49996 7.95175 7.69996C8.34175 8.16996 8.92175 8.42997 9.26175 8.42997C9.47175 8.42997 9.62175 8.32996 9.64175 8.16996C9.68175 7.91996 9.42175 7.78996 9.17175 7.66996C8.82175 7.49996 8.38176 7.27998 8.37176 6.68998C8.34176 5.26998 8.56176 1.47998 9.93176 0.87998V16.14C9.93176 16.32 10.1418 16.57 10.3318 16.57C10.4818 16.57 10.6318 16.42 10.7018 16.28C10.7218 16.23 10.7418 16.18 10.7418 16.14V0.309973L10.7318 0.299963Z" fill="#D3AA74"/>
<path d="M1.75174 4.26999C1.75174 4.26999 1.84177 4.26999 1.87177 4.23999C1.99177 4.16999 2.08176 3.99 2.08176 3.81V0.369995C2.08176 0.219995 1.87176 0.02 1.71176 0H1.69174C1.61174 0 1.52176 0.0499951 1.43176 0.119995C1.34176 0.199995 1.29175 0.289985 1.29175 0.359985V3.94C1.29175 4.13 1.60174 4.26999 1.75174 4.26999Z" fill="#D3AA74"/>
<path d="M2.69174 4.27997H2.71176L2.76175 4.29996C2.97175 4.29996 3.10175 3.94996 3.10175 3.82996V0.389954C3.10175 0.389954 3.08176 0.299949 3.05176 0.259949C2.97176 0.139949 2.79174 0.0299683 2.66174 0.0299683C2.62174 0.0299683 2.58176 0.029967 2.55176 0.059967C2.50176 0.089967 2.43174 0.14995 2.38174 0.22995C2.35174 0.27995 2.30176 0.379961 2.30176 0.459961V3.97995V4.03995L2.35175 4.07996C2.41175 4.11996 2.58176 4.23995 2.68176 4.28995L2.69174 4.27997Z" fill="#D3AA74"/>
</svg>
