<svg width="17" height="20" viewBox="0 0 17 20" fill="none" xmlns="http://www.w3.org/2000/svg">
<path d="M15.3 1.25998H14.05V0.339996C14.05 0.149996 13.9 0 13.71 0H9.34003C9.15003 0 9 0.149996 9 0.339996V1.25998H7.12003V0.339996C7.12003 0.159996 6.96 0 6.78 0H2.41C2.22 0 2.07001 0.149996 2.07001 0.339996V1.25998H0.820007C0.370007 1.25998 0 1.62999 0 2.07999V17.29C0 17.6 0.180001 17.89 0.470001 18.02V19.21C0.470001 19.4 0.619998 19.55 0.809998 19.55H2.25C2.44 19.55 2.59003 19.4 2.59003 19.21V18.11H13.53V19.21C13.53 19.4 13.68 19.55 13.87 19.55H15.31C15.5 19.55 15.65 19.4 15.65 19.21V18.02C15.93 17.88 16.12 17.6 16.12 17.29V2.07999C16.12 1.62999 15.75 1.25998 15.3 1.25998ZM14.98 18.11V18.87H14.22V18.11H14.98ZM1.92001 18.11V18.87H1.16V18.11H1.92001ZM15.44 5.13998V17.29C15.44 17.37 15.38 17.43 15.3 17.43H0.830017C0.750017 17.43 0.690002 17.37 0.690002 17.29V5.13998H15.44ZM2.76001 1.25998V0.679993H6.45001V1.25998H2.76001ZM13.37 0.679993V1.25998H9.68002V0.679993H13.37ZM15.44 2.07999V4.45999H0.690002V2.07999C0.690002 1.99999 0.750017 1.94 0.830017 1.94H15.3C15.38 1.94 15.44 1.99999 15.44 2.07999Z" fill="#D3AA74"/>
<path d="M3.19012 2.15002C2.61012 2.15002 2.13013 2.63002 2.13013 3.21002C2.13013 3.79002 2.61012 4.27002 3.19012 4.27002C3.77012 4.27002 4.25012 3.79002 4.25012 3.21002C4.25012 2.63002 3.78012 2.15002 3.19012 2.15002ZM3.19012 3.59003C2.98012 3.59003 2.81012 3.42001 2.81012 3.20001C2.81012 2.98001 2.98012 2.82001 3.19012 2.82001C3.40012 2.82001 3.57013 2.99001 3.57013 3.20001C3.57013 3.41001 3.40012 3.59003 3.19012 3.59003Z" fill="#D3AA74"/>
<path d="M6.44012 2.15002C5.86012 2.15002 5.38013 2.63002 5.38013 3.21002C5.38013 3.79002 5.86012 4.27002 6.44012 4.27002C7.02012 4.27002 7.50012 3.79002 7.50012 3.21002C7.50012 2.63002 7.03012 2.15002 6.44012 2.15002ZM6.44012 3.59003C6.23012 3.59003 6.06012 3.42001 6.06012 3.20001C6.06012 2.98001 6.23012 2.82001 6.44012 2.82001C6.65012 2.82001 6.82013 2.99001 6.82013 3.20001C6.82013 3.41001 6.65012 3.59003 6.44012 3.59003Z" fill="#D3AA74"/>
<path d="M9.69012 2.15002C9.11012 2.15002 8.63013 2.63002 8.63013 3.21002C8.63013 3.79002 9.10012 4.27002 9.69012 4.27002C10.2801 4.27002 10.7501 3.79002 10.7501 3.21002C10.7501 2.63002 10.2701 2.15002 9.69012 2.15002ZM10.0801 3.21002C10.0801 3.42002 9.91013 3.60001 9.70013 3.60001C9.49013 3.60001 9.32013 3.43002 9.32013 3.21002C9.32013 2.99002 9.49013 2.83002 9.70013 2.83002C9.91013 2.83002 10.0801 3.00002 10.0801 3.21002Z" fill="#D3AA74"/>
<path d="M12.9499 2.15002C12.3699 2.15002 11.8899 2.63002 11.8899 3.21002C11.8899 3.79002 12.3599 4.27002 12.9499 4.27002C13.5399 4.27002 14.0099 3.79002 14.0099 3.21002C14.0099 2.63002 13.5299 2.15002 12.9499 2.15002ZM13.3299 3.21002C13.3299 3.42002 13.1599 3.60001 12.9499 3.60001C12.7399 3.60001 12.5699 3.43002 12.5699 3.21002C12.5699 2.99002 12.7399 2.83002 12.9499 2.83002C13.1599 2.83002 13.3299 3.00002 13.3299 3.21002Z" fill="#D3AA74"/>
<path d="M1.93008 16.38H14.2001C14.3901 16.38 14.5401 16.23 14.5401 16.04V6.49002C14.5401 6.30002 14.3901 6.15002 14.2001 6.15002H1.93008C1.74008 6.15002 1.59009 6.30002 1.59009 6.49002V16.04C1.59009 16.23 1.74008 16.38 1.93008 16.38ZM2.27008 15.71V6.84003H13.8601V15.71H2.27008Z" fill="#D3AA74"/>
<path d="M12.9501 9.31995H3.19009C3.00009 9.31995 2.8501 9.47997 2.8501 9.65997V14.93C2.8501 15.12 3.00009 15.27 3.19009 15.27H12.9501C13.1401 15.27 13.2901 15.12 13.2901 14.93V9.65997C13.2901 9.47997 13.1301 9.31995 12.9501 9.31995ZM12.6101 9.99997V14.58H3.53009V9.99997H12.6101Z" fill="#D3AA74"/>
<path d="M12.9501 7.69H3.19009C3.00009 7.69 2.8501 7.84 2.8501 8.03C2.8501 8.22 3.01009 8.37 3.19009 8.37H12.9501C13.1401 8.37 13.2901 8.21 13.2901 8.03C13.2901 7.85 13.1401 7.69 12.9501 7.69Z" fill="#D3AA74"/>
</svg>
