<svg width="23" height="14" viewBox="0 0 23 14" fill="none" xmlns="http://www.w3.org/2000/svg">
<path d="M21.77 8.16998L22.91 0.51001C22.91 0.51001 22.91 0.490011 22.91 0.480011V0.419983C22.91 0.329983 22.87 0.240004 22.81 0.160004C22.73 0.0800037 22.63 0.0200098 22.53 0.0100098H22.48H20.91C20.7 0.0100098 20.53 0.150006 20.49 0.350006L19.28 5.67999H17.9V5.64001L17.61 0.980011C17.6 0.760011 17.43 0.590007 17.21 0.570007H5.66C5.44 0.570007 5.26 0.730002 5.23 0.940002V0.98999L5.03 5.67999H3.65V5.65002L2.44 0.339996C2.39 0.139996 2.22 0 2.01 0H0.440001C0.310001 0 0.190001 0.0499939 0.110001 0.149994C0.0500006 0.229994 0.01 0.319983 0 0.419983V0.470001C0 0.470001 0 0.49 0 0.5L1.14 8.15997C1.15 8.24997 1.19 8.32001 1.25 8.39001H1.26V8.41998L0.93 13.17C0.93 13.29 0.959999 13.4 1.04 13.49C1.12 13.58 1.22 13.63 1.34 13.64C1.35 13.64 1.36 13.64 1.37 13.64C1.6 13.64 1.79 13.46 1.8 13.23L2.13 8.51001H2.17L4.14 8.41998H4.96V8.44C4.96 8.44 5.02 8.50998 5.04 8.53998C5.12 8.62998 5.24 8.66998 5.36 8.66998H6.4V8.71002L6.68 13.21C6.69 13.44 6.89 13.62 7.12 13.62H7.13C7.13 13.62 7.14 13.62 7.15 13.62C7.26 13.62 7.37 13.56 7.45 13.48C7.53 13.39 7.57 13.28 7.56 13.16L7.28 8.63H7.49C7.62 8.63 7.74 8.56997 7.83 8.46997L7.92 8.37C7.98 8.30999 8.08 8.22 8.19 8.12C8.38 7.97 8.66 7.78998 8.93 7.78998C9.14 7.78998 9.43 7.93 9.75 8.19C9.88 8.3 10 8.41 10.09 8.5L10.25 8.66998V10.47H10.23L8.91 11.33C8.78 11.41 8.71 11.55 8.71 11.7V13.01C8.71 13.25 8.91 13.45 9.15 13.45H13.98C14.22 13.45 14.41 13.25 14.41 13.01V11.7C14.41 11.56 14.34 11.42 14.23 11.34L13.03 10.49V8.64001H12.99L13.03 8.54999V8.53998L13.09 8.45001C13.14 8.38001 13.21 8.26997 13.31 8.15997C13.53 7.92997 13.75 7.79999 13.96 7.79999C14.26 7.79999 14.57 7.98001 14.78 8.14001C14.88 8.21001 14.98 8.30001 15.08 8.39001L15.18 8.48999C15.24 8.55999 15.32 8.61 15.4 8.63H15.43V13.2C15.43 13.44 15.63 13.64 15.87 13.64C16.11 13.64 16.31 13.44 16.31 13.2V8.67999H17.6C17.72 8.67999 17.83 8.62998 17.92 8.53998C17.95 8.50998 17.97 8.48 17.99 8.44V8.41998H18.77L20.77 8.51001V8.54999L21.11 13.23C21.13 13.46 21.32 13.64 21.54 13.64C21.54 13.64 21.56 13.64 21.57 13.64C21.69 13.64 21.79 13.58 21.87 13.49C21.95 13.4 21.98 13.29 21.97 13.17L21.63 8.40002H21.64C21.7 8.32002 21.73 8.23997 21.75 8.15997L21.77 8.16998ZM4.11 7.54999L1.95 7.65002V7.60999L0.940001 0.880005H1.66V0.910004L2.87 6.21997C2.91 6.41997 3.09 6.56 3.29 6.56H4.68V6.59998L4.76 7.54999H4.11ZM13.53 11.94V12.58H9.57V11.96H9.59L10.91 11.11C11.04 11.03 11.11 10.89 11.11 10.74V8.82001H12.14V10.74C12.14 10.88 12.21 11.02 12.33 11.1L13.53 11.95V11.94ZM15.7 7.77002H15.69C15.6 7.67002 15.46 7.54999 15.3 7.42999C14.84 7.08999 14.39 6.91998 13.97 6.91998C13.39 6.91998 12.95 7.27 12.68 7.56C12.55 7.7 12.46 7.82002 12.41 7.90002V7.91998H10.74L10.71 7.90002C10.64 7.82002 10.49 7.68002 10.29 7.52002C9.8 7.12002 9.34 6.91998 8.92 6.91998C8.39 6.91998 7.93 7.2 7.64 7.44C7.49 7.56 7.37 7.68 7.29 7.75H7.28L5.8 7.76001V7.71997L6.06 1.44H7.8C7.8 1.44 7.89 1.47 7.95 1.47H15.29C15.34 1.47 15.39 1.47001 15.44 1.45001H15.45H16.75V1.48999L17.14 7.77002H15.7ZM20.96 7.65002H20.92L18.79 7.54999H18.14L18.22 6.56H19.61C19.81 6.56 19.99 6.41997 20.04 6.21997L21.25 0.880005H21.96V0.929993L20.95 7.65002H20.96Z" fill="#D3AA74"/>
</svg>
