<svg width="27" height="21" viewBox="0 0 27 21" fill="none" xmlns="http://www.w3.org/2000/svg">
<path d="M26.31 12.26L26.23 12.06V0.700012C26.23 0.310012 25.87 0 25.43 0H0.619999C0.469999 0 0.33 0.0499951 0.23 0.119995H0.139999V0.200012C0.0499994 0.290012 0 0.419988 0 0.549988V17.97C0 18.94 -1.43051e-06 20.56 1.94 20.56H23.28C24.9 20.56 26.22 19.4 26.22 17.97V12.29L26.3 12.25L26.31 12.26ZM1.12 1H25.09V9.84C23.96 8.08 22.61 7.02999 21.44 6.39999H24.04V2.13H2.65V6.39999H18.33L18.4 6.45999L18.6 6.48001C18.77 6.49001 22.86 6.87001 25.07 12.2L25.09 12.23V17.98C25.09 18.86 24.28 19.57 23.28 19.57H1.94C1.26 19.57 1.13 19.3 1.13 17.98V1H1.12ZM17.28 5.41V3.13H22.91V5.41H17.28ZM10.57 3.12H16.13V5.39999H10.57V3.12ZM9.36 5.41H3.78V3.13H9.36V5.41Z" fill="#D3AA74"/>
</svg>
