<svg width="21" height="21" viewBox="0 0 21 21" fill="none" xmlns="http://www.w3.org/2000/svg">
<path d="M20.57 12.25L20.52 12.12V0.699982C20.52 0.309982 20.16 0 19.72 0H0.619999C0.469999 0 0.33 0.0499951 0.23 0.119995H0.139999V0.199982C0.0499994 0.289982 0 0.419988 0 0.549988V17.97C0 19.4 1.32 20.56 2.94 20.56H17.57C19.19 20.56 20.51 19.4 20.51 17.97V12.28L20.56 12.26L20.57 12.25ZM17.57 19.56H2.94C1.94 19.56 1.13 18.85 1.13 17.97V0.98999H19.39V9.87997C18.34 8.21997 17.09 7.18999 15.98 6.54999H18.6V2.28H10.69V6.54999H13.34C14.51 6.79999 17.55 7.85998 19.35 12.2L19.39 12.27V17.97C19.39 18.85 18.58 19.56 17.58 19.56H17.57ZM12.96 5.47998H12.7L12.61 5.54999H11.81V3.26999H17.46V5.54999H13.43C13.14 5.48999 12.97 5.47998 12.96 5.47998Z" fill="#D3AA74"/>
<path d="M1.91992 6.53995H9.82992V2.26996H1.91992V6.53995ZM8.69992 3.26996V5.54996H3.04992V3.26996H8.69992Z" fill="#D3AA74"/>
</svg>
