<svg width="11" height="21" viewBox="0 0 11 21" fill="none" xmlns="http://www.w3.org/2000/svg">
<path d="M10.79 12.33L10.76 12.26L10.73 0.429993V0L0 0.0299988L0.0500031 18.93C0.0500031 19.29 0.210005 19.63 0.490005 19.89C0.770005 20.15 1.15 20.29 1.55 20.29L9.26001 20.27C10.09 20.27 10.76 19.66 10.76 18.91L10.74 12.41L10.77 12.34L10.79 12.33ZM9.65001 18.91C9.65001 19.11 9.48 19.27 9.28 19.27L1.57001 19.29C1.47001 19.29 1.39001 19.26 1.32001 19.19C1.24001 19.12 1.2 19.03 1.2 18.93L1.15001 1.01999L9.61 0.98999L9.64 10.09C8.55 8.38 7.33001 7.31001 6.26001 6.64001H9.10001V1.98001H1.71001V6.64001H3.79001C4.93001 6.96001 7.74 8.15 9.64 12.44L9.66 18.89L9.65001 18.91ZM3.36 5.54001L2.82001 5.56V2.98001H7.95V5.64999H3.95C3.62 5.56999 3.4 5.54001 3.36 5.54001Z" fill="#D3AA74"/>
</svg>
