<svg width="28" height="29" viewBox="0 0 28 29" fill="none" xmlns="http://www.w3.org/2000/svg">
<path d="M22.63 11.06C22.63 10.35 21.9 9.76999 20.45 9.32999C19.54 9.05999 18.38 8.86999 17.1 8.79999H17.07V6.45999H21.28C22 6.45999 22.58 5.90999 22.58 5.23999C22.58 4.87999 22.41 4.54 22.11 4.31V4.29001C21.64 1.84001 19.27 0 16.6 0H15.03C13.54 0 12.14 0.539989 11.08 1.51999C10.26 2.27999 9.72 3.23999 9.52 4.29999V4.32001C9.22 4.55001 9.05 4.89 9.05 5.25C9.05 5.92 9.63001 6.47 10.35 6.47H14.56V8.81H14.53C13.25 8.89 12.1 9.07001 11.18 9.35001C9.76001 9.77001 9 10.37 9 11.08C9 11.79 9.73001 12.37 11.18 12.81C12.14 13.09 13.34 13.28 14.65 13.35H14.68V17.95H14.66C13.93 18.33 13.47 19.04 13.47 19.81C13.47 20.04 13.67 20.22 13.91 20.22H17.72C17.96 20.22 18.16 20.04 18.16 19.81C18.16 19.04 17.71 18.33 16.97 17.96H16.95V13.35H16.98C18.29 13.28 19.49 13.1 20.46 12.81L20.64 12.76L20.69 12.74C21.96 12.33 22.64 11.75 22.64 11.08L22.63 11.06ZM17.67 0.940002C19.35 1.3 20.68 2.47 21.15 4V4.04001H18.55V4.01001C18.54 2.60001 18.04 1.58001 17.63 0.980011L17.59 0.919983L17.66 0.940002H17.67ZM15.23 0.839996H16.4C16.78 1.21 17.66 2.23999 17.68 4.01999V4.04999H13.93V4.01999C13.95 2.21999 14.83 1.2 15.21 0.839996H15.23ZM10.49 4C10.7 3.3 11.11 2.65998 11.65 2.13998L11.69 2.10001C12.31 1.52001 13.1 1.10999 13.97 0.929993H14.04L14 0.970001C13.59 1.57 13.09 2.59 13.08 4V4.03H10.47V3.98999L10.49 4ZM10.34 5.63998C10.12 5.63998 9.94 5.5 9.91 5.31V5.25C9.91 5.03 10.1 4.85999 10.34 4.85999H21.3C21.54 4.85999 21.73 5.04 21.73 5.25C21.73 5.46 21.54 5.63998 21.3 5.63998H10.34ZM16.22 6.45999V8.76999H16.19C15.94 8.76999 15.7 8.76999 15.45 8.76999H15.42V6.45999H16.22ZM17.21 19.35L17.23 19.39H14.43L14.45 19.35C14.65 18.84 15.18 18.5 15.76 18.5H15.9C16.49 18.5 17.01 18.83 17.22 19.35H17.21ZM15.55 17.69V13.36H15.58C15.58 13.36 15.61 13.36 15.63 13.36C15.76 13.36 15.91 13.36 16.07 13.36H16.1V17.69H16.07C16.01 17.69 15.95 17.69 15.89 17.69H15.75C15.69 17.69 15.63 17.69 15.58 17.69H15.55ZM16.53 12.54C16.3 12.54 16.07 12.54 15.83 12.54C15.59 12.54 15.34 12.54 15.12 12.54C11.68 12.43 9.88001 11.53 9.88001 11.07V11.03C10 10.51 12.08 9.59 15.82 9.59C19.56 9.59 21.76 10.57 21.76 11.07C21.76 11.52 19.96 12.43 16.52 12.54H16.53Z" fill="#D3AA74"/>
<path d="M10.73 20.39H12.37C12.61 20.39 12.8 20.21 12.8 19.98V14.14C12.8 13.91 12.61 13.73 12.37 13.73H7.27V13.7L6.77 8.36999C6.75 8.16 6.56001 8 6.34001 8H4.43001C4.19001 8 4 8.18 4 8.41V19.98C4 20.21 4.19001 20.39 4.43001 20.39H6.07001C6.31001 20.39 6.51001 20.21 6.51001 19.98V16.18H10.3V19.98C10.3 20.21 10.49 20.39 10.74 20.39H10.73ZM11.94 19.58H11.17V16.18H11.94V19.58ZM4.87001 8.82001H5.94V8.85001L6.40001 13.74H4.86V8.82001H4.87001ZM5.64 19.57H4.87001V16.18H5.64V19.57ZM4.87001 15.36V14.55H11.94V15.36H4.87001Z" fill="#D3AA74"/>
<path d="M21.0708 20.39H19.4308C19.1908 20.39 19.0008 20.21 19.0008 19.98V14.14C19.0008 13.91 19.1908 13.73 19.4308 13.73H24.5308V13.7L25.0308 8.36999C25.0508 8.16 25.2408 8 25.4608 8H27.3708C27.6108 8 27.8008 8.18 27.8008 8.41V19.98C27.8008 20.21 27.6108 20.39 27.3708 20.39H25.7308C25.4908 20.39 25.2908 20.21 25.2908 19.98V16.18H21.5008V19.98C21.5008 20.21 21.3108 20.39 21.0608 20.39H21.0708ZM19.8608 19.58H20.6308V16.18H19.8608V19.58ZM26.9308 8.82001H25.8608V8.85001L25.4008 13.74H26.9408V8.82001H26.9308ZM26.1608 19.57H26.9308V16.18H26.1608V19.57ZM26.9308 15.36V14.55H19.8608V15.36H26.9308Z" fill="#D3AA74"/>
</svg>
